0
SECTION
2
HEADER
9
$ANGDIR
70
1
9
$AUNITS
70
0
9
$PROJECTNAME
1
Adafruit PowerBoost 1000 Basic
9
$TDCREATE
40
2460638.70624410
9
$INSUNITS
70
4
0
ENDSEC
0
SECTION
2
ENTITIES
0
POLYLINE
66
1
8
outline
10
0.0
20
0.0
30
0.0
70
1
0
VERTEX
8
0
10
0
20
2.54
30
0
0
VERTEX
8
0
10
0.009665625
20
2.318625
30
0
0
VERTEX
8
0
10
0.038587500000000004
20
2.0989343750000002
30
0
0
VERTEX
8
0
10
0.08654687500000001
20
1.8826
30
0
0
VERTEX
8
0
10
0.15318125000000002
20
1.67126875
30
0
0
VERTEX
8
0
10
0.237978125
20
1.46655
30
0
0
VERTEX
8
0
10
0.340296875
20
1.27
30
0
0
VERTEX
8
0
10
0.45935312500000003
20
1.083115625
30
0
0
VERTEX
8
0
10
0.5942468750000001
20
0.9073187500000001
30
0
0
VERTEX
8
0
10
0.74395
20
0.74395
30
0
0
VERTEX
8
0
10
0.9073187500000001
20
0.5942468750000001
30
0
0
VERTEX
8
0
10
1.083115625
20
0.45935312500000003
30
0
0
VERTEX
8
0
10
1.27
20
0.340296875
30
0
0
VERTEX
8
0
10
1.46655
20
0.237978125
30
0
0
VERTEX
8
0
10
1.67126875
20
0.15318125000000002
30
0
0
VERTEX
8
0
10
1.8826
20
0.08654687500000001
30
0
0
VERTEX
8
0
10
2.0989343750000002
20
0.038587500000000004
30
0
0
VERTEX
8
0
10
2.318625
20
0.009665625
30
0
0
VERTEX
8
0
10
2.54
20
0
30
0
0
VERTEX
8
0
10
27.432000000000002
20
0
30
0
0
VERTEX
8
0
10
27.618718750000003
20
0.041421875000000004
30
0
0
VERTEX
8
0
10
27.80111875
20
0.098959375
30
0
0
VERTEX
8
0
10
27.977809375
20
0.172175
30
0
0
VERTEX
8
0
10
28.14744375
20
0.26051250000000004
30
0
0
VERTEX
8
0
10
28.308737500000003
20
0.3633
30
0
0
VERTEX
8
0
10
28.46045625
20
0.47975
30
0
0
VERTEX
8
0
10
28.60145
20
0.608984375
30
0
0
VERTEX
8
0
10
28.730640625000003
20
0.7500125000000001
30
0
0
VERTEX
8
0
10
28.847050000000003
20
0.901765625
30
0
0
VERTEX
8
0
10
28.949790625000002
20
1.063084375
30
0
0
VERTEX
8
0
10
29.03808125
20
1.2327468750000001
30
0
0
VERTEX
8
0
10
29.111250000000002
20
1.40945625
30
0
0
VERTEX
8
0
10
29.168737500000002
20
1.591871875
30
0
0
VERTEX
8
0
10
29.210106250000003
20
1.7786000000000002
30
0
0
VERTEX
8
0
10
29.235043750000003
20
1.968228125
30
0
0
VERTEX
8
0
10
29.243359375
20
2.15930625
30
0
0
VERTEX
8
0
10
29.234990625000002
20
2.3503812500000003
30
0
0
VERTEX
8
0
10
29.21
20
2.54
30
0
0
VERTEX
8
0
10
29.21
20
20.32
30
0
0
VERTEX
8
0
10
29.234990625000002
20
20.50961875
30
0
0
VERTEX
8
0
10
29.243359375
20
20.70069375
30
0
0
VERTEX
8
0
10
29.235043750000003
20
20.891771875
30
0
0
VERTEX
8
0
10
29.210106250000003
20
21.081400000000002
30
0
0
VERTEX
8
0
10
29.168737500000002
20
21.268128125
30
0
0
VERTEX
8
0
10
29.111250000000002
20
21.45054375
30
0
0
VERTEX
8
0
10
29.03808125
20
21.627253125
30
0
0
VERTEX
8
0
10
28.949790625000002
20
21.796915625
30
0
0
VERTEX
8
0
10
28.847050000000003
20
21.958234375
30
0
0
VERTEX
8
0
10
28.730640625000003
20
22.109987500000003
30
0
0
VERTEX
8
0
10
28.60145
20
22.251015625
30
0
0
VERTEX
8
0
10
28.46045625
20
22.38025
30
0
0
VERTEX
8
0
10
28.308737500000003
20
22.4967
30
0
0
VERTEX
8
0
10
28.14744375
20
22.599487500000002
30
0
0
VERTEX
8
0
10
27.977809375
20
22.687825
30
0
0
VERTEX
8
0
10
27.80111875
20
22.761040625
30
0
0
VERTEX
8
0
10
27.618718750000003
20
22.818578125000002
30
0
0
VERTEX
8
0
10
27.432000000000002
20
22.86
30
0
0
VERTEX
8
0
10
2.54
20
22.86
30
0
0
VERTEX
8
0
10
2.318625
20
22.850334375000003
30
0
0
VERTEX
8
0
10
2.0989343750000002
20
22.8214125
30
0
0
VERTEX
8
0
10
1.8826
20
22.773453125
30
0
0
VERTEX
8
0
10
1.67126875
20
22.70681875
30
0
0
VERTEX
8
0
10
1.46655
20
22.622021875
30
0
0
VERTEX
8
0
10
1.27
20
22.519703125
30
0
0
VERTEX
8
0
10
1.083115625
20
22.400646875
30
0
0
VERTEX
8
0
10
0.9073187500000001
20
22.265753125
30
0
0
VERTEX
8
0
10
0.74395
20
22.11605
30
0
0
VERTEX
8
0
10
0.5942468750000001
20
21.95268125
30
0
0
VERTEX
8
0
10
0.45935312500000003
20
21.776884375
30
0
0
VERTEX
8
0
10
0.340296875
20
21.59
30
0
0
VERTEX
8
0
10
0.237978125
20
21.39345
30
0
0
VERTEX
8
0
10
0.15318125000000002
20
21.18873125
30
0
0
VERTEX
8
0
10
0.08654687500000001
20
20.9774
30
0
0
VERTEX
8
0
10
0.038587500000000004
20
20.761065625
30
0
0
VERTEX
8
0
10
0.009665625
20
20.541375000000002
30
0
0
VERTEX
8
0
10
0
20
20.32
30
0
0
VERTEX
8
0
10
0
20
2.54
30
0
0
SEQEND
0
POLYLINE
66
1
8
1_copper
10
0.0
20
0.0
30
0.0
70
1
0
VERTEX
8
0
10
7.747000000000001
20
20.840765625
30
0
0
VERTEX
8
0
10
7.747000000000001
20
21.577234375
30
0
0
VERTEX
8
0
10
7.226234375000001
20
22.098000000000003
30
0
0
VERTEX
8
0
10
6.489765625
20
22.098000000000003
30
0
0
VERTEX
8
0
10
5.969
20
21.577234375
30
0
0
VERTEX
8
0
10
5.969
20
20.840765625
30
0
0
VERTEX
8
0
10
6.489765625
20
20.32
30
0
0
VERTEX
8
0
10
7.226234375000001
20
20.32
30
0
0
SEQEND
0
POLYLINE
66
1
8
1_copper
10
0.0
20
0.0
30
0.0
70
1
0
VERTEX
8
0
10
10.287
20
20.840765625
30
0
0
VERTEX
8
0
10
10.287
20
21.577234375
30
0
0
VERTEX
8
0
10
9.766234375
20
22.098000000000003
30
0
0
VERTEX
8
0
10
9.029765625
20
22.098000000000003
30
0
0
VERTEX
8
0
10
8.509
20
21.577234375
30
0
0
VERTEX
8
0
10
8.509
20
20.840765625
30
0
0
VERTEX
8
0
10
9.029765625
20
20.32
30
0
0
VERTEX
8
0
10
9.766234375
20
20.32
30
0
0
SEQEND
0
POLYLINE
66
1
8
1_copper
10
0.0
20
0.0
30
0.0
70
1
0
VERTEX
8
0
10
12.827
20
20.840765625
30
0
0
VERTEX
8
0
10
12.827
20
21.577234375
30
0
0
VERTEX
8
0
10
12.306234375
20
22.098000000000003
30
0
0
VERTEX
8
0
10
11.569765625
20
22.098000000000003
30
0
0
VERTEX
8
0
10
11.049000000000001
20
21.577234375
30
0
0
VERTEX
8
0
10
11.049000000000001
20
20.840765625
30
0
0
VERTEX
8
0
10
11.569765625
20
20.32
30
0
0
VERTEX
8
0
10
12.306234375
20
20.32
30
0
0
SEQEND
0
POLYLINE
66
1
8
1_copper
10
0.0
20
0.0
30
0.0
70
1
0
VERTEX
8
0
10
15.367
20
20.840765625
30
0
0
VERTEX
8
0
10
15.367
20
21.577234375
30
0
0
VERTEX
8
0
10
14.846234375
20
22.098000000000003
30
0
0
VERTEX
8
0
10
14.109765625000001
20
22.098000000000003
30
0
0
VERTEX
8
0
10
13.589
20
21.577234375
30
0
0
VERTEX
8
0
10
13.589
20
20.840765625
30
0
0
VERTEX
8
0
10
14.109765625000001
20
20.32
30
0
0
VERTEX
8
0
10
14.846234375
20
20.32
30
0
0
SEQEND
0
POLYLINE
66
1
8
1_copper
10
0.0
20
0.0
30
0.0
70
1
0
VERTEX
8
0
10
17.907
20
20.840765625
30
0
0
VERTEX
8
0
10
17.907
20
21.577234375
30
0
0
VERTEX
8
0
10
17.386234375
20
22.098000000000003
30
0
0
VERTEX
8
0
10
16.649765625
20
22.098000000000003
30
0
0
VERTEX
8
0
10
16.129
20
21.577234375
30
0
0
VERTEX
8
0
10
16.129
20
20.840765625
30
0
0
VERTEX
8
0
10
16.649765625
20
20.32
30
0
0
VERTEX
8
0
10
17.386234375
20
20.32
30
0
0
SEQEND
0
POLYLINE
66
1
8
1_copper
10
0.0
20
0.0
30
0.0
70
1
0
VERTEX
8
0
10
20.447000000000003
20
20.840765625
30
0
0
VERTEX
8
0
10
20.447000000000003
20
21.577234375
30
0
0
VERTEX
8
0
10
19.926234375
20
22.098000000000003
30
0
0
VERTEX
8
0
10
19.189765625
20
22.098000000000003
30
0
0
VERTEX
8
0
10
18.669
20
21.577234375
30
0
0
VERTEX
8
0
10
18.669
20
20.840765625
30
0
0
VERTEX
8
0
10
19.189765625
20
20.32
30
0
0
VERTEX
8
0
10
19.926234375
20
20.32
30
0
0
SEQEND
0
POLYLINE
66
1
8
16_copper
10
0.0
20
0.0
30
0.0
70
1
0
VERTEX
8
0
10
7.747000000000001
20
20.840765625
30
0
0
VERTEX
8
0
10
7.747000000000001
20
21.577234375
30
0
0
VERTEX
8
0
10
7.226234375000001
20
22.098000000000003
30
0
0
VERTEX
8
0
10
6.489765625
20
22.098000000000003
30
0
0
VERTEX
8
0
10
5.969
20
21.577234375
30
0
0
VERTEX
8
0
10
5.969
20
20.840765625
30
0
0
VERTEX
8
0
10
6.489765625
20
20.32
30
0
0
VERTEX
8
0
10
7.226234375000001
20
20.32
30
0
0
SEQEND
0
POLYLINE
66
1
8
16_copper
10
0.0
20
0.0
30
0.0
70
1
0
VERTEX
8
0
10
10.287
20
20.840765625
30
0
0
VERTEX
8
0
10
10.287
20
21.577234375
30
0
0
VERTEX
8
0
10
9.766234375
20
22.098000000000003
30
0
0
VERTEX
8
0
10
9.029765625
20
22.098000000000003
30
0
0
VERTEX
8
0
10
8.509
20
21.577234375
30
0
0
VERTEX
8
0
10
8.509
20
20.840765625
30
0
0
VERTEX
8
0
10
9.029765625
20
20.32
30
0
0
VERTEX
8
0
10
9.766234375
20
20.32
30
0
0
SEQEND
0
POLYLINE
66
1
8
16_copper
10
0.0
20
0.0
30
0.0
70
1
0
VERTEX
8
0
10
12.827
20
20.840765625
30
0
0
VERTEX
8
0
10
12.827
20
21.577234375
30
0
0
VERTEX
8
0
10
12.306234375
20
22.098000000000003
30
0
0
VERTEX
8
0
10
11.569765625
20
22.098000000000003
30
0
0
VERTEX
8
0
10
11.049000000000001
20
21.577234375
30
0
0
VERTEX
8
0
10
11.049000000000001
20
20.840765625
30
0
0
VERTEX
8
0
10
11.569765625
20
20.32
30
0
0
VERTEX
8
0
10
12.306234375
20
20.32
30
0
0
SEQEND
0
POLYLINE
66
1
8
16_copper
10
0.0
20
0.0
30
0.0
70
1
0
VERTEX
8
0
10
15.367
20
20.840765625
30
0
0
VERTEX
8
0
10
15.367
20
21.577234375
30
0
0
VERTEX
8
0
10
14.846234375
20
22.098000000000003
30
0
0
VERTEX
8
0
10
14.109765625000001
20
22.098000000000003
30
0
0
VERTEX
8
0
10
13.589
20
21.577234375
30
0
0
VERTEX
8
0
10
13.589
20
20.840765625
30
0
0
VERTEX
8
0
10
14.109765625000001
20
20.32
30
0
0
VERTEX
8
0
10
14.846234375
20
20.32
30
0
0
SEQEND
0
POLYLINE
66
1
8
16_copper
10
0.0
20
0.0
30
0.0
70
1
0
VERTEX
8
0
10
17.907
20
20.840765625
30
0
0
VERTEX
8
0
10
17.907
20
21.577234375
30
0
0
VERTEX
8
0
10
17.386234375
20
22.098000000000003
30
0
0
VERTEX
8
0
10
16.649765625
20
22.098000000000003
30
0
0
VERTEX
8
0
10
16.129
20
21.577234375
30
0
0
VERTEX
8
0
10
16.129
20
20.840765625
30
0
0
VERTEX
8
0
10
16.649765625
20
20.32
30
0
0
VERTEX
8
0
10
17.386234375
20
20.32
30
0
0
SEQEND
0
POLYLINE
66
1
8
16_copper
10
0.0
20
0.0
30
0.0
70
1
0
VERTEX
8
0
10
20.447000000000003
20
20.840765625
30
0
0
VERTEX
8
0
10
20.447000000000003
20
21.577234375
30
0
0
VERTEX
8
0
10
19.926234375
20
22.098000000000003
30
0
0
VERTEX
8
0
10
19.189765625
20
22.098000000000003
30
0
0
VERTEX
8
0
10
18.669
20
21.577234375
30
0
0
VERTEX
8
0
10
18.669
20
20.840765625
30
0
0
VERTEX
8
0
10
19.189765625
20
20.32
30
0
0
VERTEX
8
0
10
19.926234375
20
20.32
30
0
0
SEQEND
0
CIRCLE
8
drills_PTH
10
2.794
20
20.32
30
0
40
1.25
0
CIRCLE
8
drills_PTH
10
2.54
20
2.54
30
0
40
1.25
0
CIRCLE
8
drills_PTH
10
6.8580000000000005
20
21.209
30
0
40
0.508
0
CIRCLE
8
drills_PTH
10
9.398
20
21.209
30
0
40
0.508
0
CIRCLE
8
drills_PTH
10
11.938
20
21.209
30
0
40
0.508
0
CIRCLE
8
drills_PTH
10
14.478000000000002
20
21.209
30
0
40
0.508
0
CIRCLE
8
drills_PTH
10
17.018
20
21.209
30
0
40
0.508
0
CIRCLE
8
drills_PTH
10
19.558
20
21.209
30
0
40
0.508
0
ENDSEC
0
EOF