0
SECTION
2
HEADER
9
$ANGDIR
70
1
9
$AUNITS
70
0
9
$PROJECTNAME
1
Adafruit MAX4466 Mic Amp
9
$TDCREATE
40
2460638.70400886
9
$INSUNITS
70
4
0
ENDSEC
0
SECTION
2
ENTITIES
0
POLYLINE
66
1
8
outline
10
0.0
20
0.0
30
0.0
70
1
0
VERTEX
8
0
10
0
20
2.54
30
0
0
VERTEX
8
0
10
0.009665625
20
2.318625
30
0
0
VERTEX
8
0
10
0.038587500000000004
20
2.0989343750000002
30
0
0
VERTEX
8
0
10
0.08654687500000001
20
1.8826
30
0
0
VERTEX
8
0
10
0.15318125000000002
20
1.67126875
30
0
0
VERTEX
8
0
10
0.237978125
20
1.46655
30
0
0
VERTEX
8
0
10
0.340296875
20
1.27
30
0
0
VERTEX
8
0
10
0.45935312500000003
20
1.083115625
30
0
0
VERTEX
8
0
10
0.5942468750000001
20
0.9073187500000001
30
0
0
VERTEX
8
0
10
0.74395
20
0.74395
30
0
0
VERTEX
8
0
10
0.9073187500000001
20
0.5942468750000001
30
0
0
VERTEX
8
0
10
1.083115625
20
0.45935312500000003
30
0
0
VERTEX
8
0
10
1.27
20
0.340296875
30
0
0
VERTEX
8
0
10
1.46655
20
0.237978125
30
0
0
VERTEX
8
0
10
1.67126875
20
0.15318125000000002
30
0
0
VERTEX
8
0
10
1.8826
20
0.08654687500000001
30
0
0
VERTEX
8
0
10
2.0989343750000002
20
0.038587500000000004
30
0
0
VERTEX
8
0
10
2.318625
20
0.009665625
30
0
0
VERTEX
8
0
10
2.54
20
0
30
0
0
VERTEX
8
0
10
11.43
20
0
30
0
0
VERTEX
8
0
10
11.651375
20
0.009665625
30
0
0
VERTEX
8
0
10
11.871065625
20
0.038587500000000004
30
0
0
VERTEX
8
0
10
12.0874
20
0.08654687500000001
30
0
0
VERTEX
8
0
10
12.298731250000001
20
0.15318125000000002
30
0
0
VERTEX
8
0
10
12.50345
20
0.237978125
30
0
0
VERTEX
8
0
10
12.700000000000001
20
0.340296875
30
0
0
VERTEX
8
0
10
12.886884375000001
20
0.45935312500000003
30
0
0
VERTEX
8
0
10
13.06268125
20
0.5942468750000001
30
0
0
VERTEX
8
0
10
13.22605
20
0.74395
30
0
0
VERTEX
8
0
10
13.375753125000001
20
0.9073187500000001
30
0
0
VERTEX
8
0
10
13.510646875
20
1.083115625
30
0
0
VERTEX
8
0
10
13.629703125
20
1.27
30
0
0
VERTEX
8
0
10
13.732021875000001
20
1.46655
30
0
0
VERTEX
8
0
10
13.816818750000001
20
1.67126875
30
0
0
VERTEX
8
0
10
13.883453125
20
1.8826
30
0
0
VERTEX
8
0
10
13.9314125
20
2.0989343750000002
30
0
0
VERTEX
8
0
10
13.960334375
20
2.318625
30
0
0
VERTEX
8
0
10
13.97
20
2.54
30
0
0
VERTEX
8
0
10
13.97
20
19.05
30
0
0
VERTEX
8
0
10
13.960334375
20
19.271375000000003
30
0
0
VERTEX
8
0
10
13.9314125
20
19.491065625
30
0
0
VERTEX
8
0
10
13.883453125
20
19.7074
30
0
0
VERTEX
8
0
10
13.816818750000001
20
19.91873125
30
0
0
VERTEX
8
0
10
13.732021875000001
20
20.123450000000002
30
0
0
VERTEX
8
0
10
13.629703125
20
20.32
30
0
0
VERTEX
8
0
10
13.510646875
20
20.506884375000002
30
0
0
VERTEX
8
0
10
13.375753125000001
20
20.68268125
30
0
0
VERTEX
8
0
10
13.22605
20
20.84605
30
0
0
VERTEX
8
0
10
13.06268125
20
20.995753125
30
0
0
VERTEX
8
0
10
12.886884375000001
20
21.130646875
30
0
0
VERTEX
8
0
10
12.700000000000001
20
21.249703125
30
0
0
VERTEX
8
0
10
12.50345
20
21.352021875000002
30
0
0
VERTEX
8
0
10
12.298731250000001
20
21.43681875
30
0
0
VERTEX
8
0
10
12.0874
20
21.503453125
30
0
0
VERTEX
8
0
10
11.871065625
20
21.5514125
30
0
0
VERTEX
8
0
10
11.651375
20
21.580334375
30
0
0
VERTEX
8
0
10
11.43
20
21.59
30
0
0
VERTEX
8
0
10
2.54
20
21.59
30
0
0
VERTEX
8
0
10
2.318625
20
21.580334375
30
0
0
VERTEX
8
0
10
2.0989343750000002
20
21.5514125
30
0
0
VERTEX
8
0
10
1.8826
20
21.503453125
30
0
0
VERTEX
8
0
10
1.67126875
20
21.43681875
30
0
0
VERTEX
8
0
10
1.46655
20
21.352021875000002
30
0
0
VERTEX
8
0
10
1.27
20
21.249703125
30
0
0
VERTEX
8
0
10
1.083115625
20
21.130646875
30
0
0
VERTEX
8
0
10
0.9073187500000001
20
20.995753125
30
0
0
VERTEX
8
0
10
0.74395
20
20.84605
30
0
0
VERTEX
8
0
10
0.5942468750000001
20
20.68268125
30
0
0
VERTEX
8
0
10
0.45935312500000003
20
20.506884375000002
30
0
0
VERTEX
8
0
10
0.340296875
20
20.32
30
0
0
VERTEX
8
0
10
0.237978125
20
20.123450000000002
30
0
0
VERTEX
8
0
10
0.15318125000000002
20
19.91873125
30
0
0
VERTEX
8
0
10
0.08654687500000001
20
19.7074
30
0
0
VERTEX
8
0
10
0.038587500000000004
20
19.491065625
30
0
0
VERTEX
8
0
10
0.009665625
20
19.271375000000003
30
0
0
VERTEX
8
0
10
0
20
19.05
30
0
0
VERTEX
8
0
10
0
20
2.54
30
0
0
SEQEND
0
CIRCLE
8
drills_PTH
10
2.1590000000000003
20
19.304000000000002
30
0
40
1.25
0
CIRCLE
8
drills_PTH
10
11.811
20
19.304000000000002
30
0
40
1.25
0
CIRCLE
8
drills_PTH
10
4.572
20
1.524
30
0
40
0.5
0
CIRCLE
8
drills_PTH
10
7.112
20
1.524
30
0
40
0.5
0
CIRCLE
8
drills_PTH
10
9.652000000000001
20
1.524
30
0
40
0.5
0
ENDSEC
0
EOF