0
SECTION
2
HEADER
9
$ANGDIR
70
1
9
$AUNITS
70
0
9
$PROJECTNAME
1
Adafruit_BQ24074
9
$TDCREATE
40
2460638.65949116
9
$INSUNITS
70
4
0
ENDSEC
0
SECTION
2
ENTITIES
0
POLYLINE
66
1
8
outline
10
0.0
20
0.0
30
0.0
70
1
0
VERTEX
8
0
10
0
20
2.54
30
0
0
VERTEX
8
0
10
0.009665625
20
2.318625
30
0
0
VERTEX
8
0
10
0.038587500000000004
20
2.0989343750000002
30
0
0
VERTEX
8
0
10
0.08654687500000001
20
1.8826
30
0
0
VERTEX
8
0
10
0.15318125000000002
20
1.67126875
30
0
0
VERTEX
8
0
10
0.237978125
20
1.46655
30
0
0
VERTEX
8
0
10
0.340296875
20
1.27
30
0
0
VERTEX
8
0
10
0.45935312500000003
20
1.083115625
30
0
0
VERTEX
8
0
10
0.5942468750000001
20
0.9073187500000001
30
0
0
VERTEX
8
0
10
0.74395
20
0.74395
30
0
0
VERTEX
8
0
10
0.9073187500000001
20
0.5942468750000001
30
0
0
VERTEX
8
0
10
1.083115625
20
0.45935312500000003
30
0
0
VERTEX
8
0
10
1.27
20
0.340296875
30
0
0
VERTEX
8
0
10
1.46655
20
0.237978125
30
0
0
VERTEX
8
0
10
1.67126875
20
0.15318125000000002
30
0
0
VERTEX
8
0
10
1.8826
20
0.08654687500000001
30
0
0
VERTEX
8
0
10
2.0989343750000002
20
0.038587500000000004
30
0
0
VERTEX
8
0
10
2.318625
20
0.009665625
30
0
0
VERTEX
8
0
10
2.54
20
0
30
0
0
VERTEX
8
0
10
35.56
20
0
30
0
0
VERTEX
8
0
10
35.781375000000004
20
0.009665625
30
0
0
VERTEX
8
0
10
36.001065625
20
0.038587500000000004
30
0
0
VERTEX
8
0
10
36.217400000000005
20
0.08654687500000001
30
0
0
VERTEX
8
0
10
36.42873125
20
0.15318125000000002
30
0
0
VERTEX
8
0
10
36.63345
20
0.237978125
30
0
0
VERTEX
8
0
10
36.83
20
0.340296875
30
0
0
VERTEX
8
0
10
37.016884375000004
20
0.45935312500000003
30
0
0
VERTEX
8
0
10
37.19268125
20
0.5942468750000001
30
0
0
VERTEX
8
0
10
37.35605
20
0.74395
30
0
0
VERTEX
8
0
10
37.505753125
20
0.9073187500000001
30
0
0
VERTEX
8
0
10
37.640646875
20
1.083115625
30
0
0
VERTEX
8
0
10
37.759703125
20
1.27
30
0
0
VERTEX
8
0
10
37.862021875
20
1.46655
30
0
0
VERTEX
8
0
10
37.94681875
20
1.67126875
30
0
0
VERTEX
8
0
10
38.013453125000005
20
1.8826
30
0
0
VERTEX
8
0
10
38.0614125
20
2.0989343750000002
30
0
0
VERTEX
8
0
10
38.090334375000005
20
2.318625
30
0
0
VERTEX
8
0
10
38.1
20
2.54
30
0
0
VERTEX
8
0
10
38.1
20
30.48
30
0
0
VERTEX
8
0
10
38.090334375000005
20
30.701375000000002
30
0
0
VERTEX
8
0
10
38.0614125
20
30.921065625
30
0
0
VERTEX
8
0
10
38.013453125000005
20
31.137400000000003
30
0
0
VERTEX
8
0
10
37.94681875
20
31.34873125
30
0
0
VERTEX
8
0
10
37.862021875
20
31.55345
30
0
0
VERTEX
8
0
10
37.759703125
20
31.75
30
0
0
VERTEX
8
0
10
37.640646875
20
31.936884375
30
0
0
VERTEX
8
0
10
37.505753125
20
32.11268125
30
0
0
VERTEX
8
0
10
37.35605
20
32.276050000000005
30
0
0
VERTEX
8
0
10
37.19268125
20
32.425753125
30
0
0
VERTEX
8
0
10
37.016884375000004
20
32.560646875
30
0
0
VERTEX
8
0
10
36.83
20
32.679703125
30
0
0
VERTEX
8
0
10
36.63345
20
32.782021875
30
0
0
VERTEX
8
0
10
36.42873125
20
32.86681875
30
0
0
VERTEX
8
0
10
36.217400000000005
20
32.933453125
30
0
0
VERTEX
8
0
10
36.001065625
20
32.981412500000005
30
0
0
VERTEX
8
0
10
35.781375000000004
20
33.010334375
30
0
0
VERTEX
8
0
10
35.56
20
33.02
30
0
0
VERTEX
8
0
10
2.54
20
33.02
30
0
0
VERTEX
8
0
10
2.318625
20
33.010334375
30
0
0
VERTEX
8
0
10
2.0989343750000002
20
32.981412500000005
30
0
0
VERTEX
8
0
10
1.8826
20
32.933453125
30
0
0
VERTEX
8
0
10
1.67126875
20
32.86681875
30
0
0
VERTEX
8
0
10
1.46655
20
32.782021875
30
0
0
VERTEX
8
0
10
1.27
20
32.679703125
30
0
0
VERTEX
8
0
10
1.083115625
20
32.560646875
30
0
0
VERTEX
8
0
10
0.9073187500000001
20
32.425753125
30
0
0
VERTEX
8
0
10
0.74395
20
32.276050000000005
30
0
0
VERTEX
8
0
10
0.5942468750000001
20
32.11268125
30
0
0
VERTEX
8
0
10
0.45935312500000003
20
31.936884375
30
0
0
VERTEX
8
0
10
0.340296875
20
31.75
30
0
0
VERTEX
8
0
10
0.237978125
20
31.55345
30
0
0
VERTEX
8
0
10
0.15318125000000002
20
31.34873125
30
0
0
VERTEX
8
0
10
0.08654687500000001
20
31.137400000000003
30
0
0
VERTEX
8
0
10
0.038587500000000004
20
30.921065625
30
0
0
VERTEX
8
0
10
0.009665625
20
30.701375000000002
30
0
0
VERTEX
8
0
10
0
20
30.48
30
0
0
VERTEX
8
0
10
0
20
2.54
30
0
0
SEQEND
0
CIRCLE
8
drills_PTH
10
2.54
20
2.54
30
0
40
1.25
0
CIRCLE
8
drills_PTH
10
2.54
20
30.48
30
0
40
1.25
0
CIRCLE
8
drills_PTH
10
35.56
20
30.48
30
0
40
1.25
0
CIRCLE
8
drills_PTH
10
35.56
20
2.54
30
0
40
1.25
0
CIRCLE
8
drills_PTH
10
31.75
20
2.54
30
0
40
0.5
0
CIRCLE
8
drills_PTH
10
29.21
20
2.54
30
0
40
0.5
0
CIRCLE
8
drills_PTH
10
26.67
20
2.54
30
0
40
0.5
0
CIRCLE
8
drills_PTH
10
24.130000000000003
20
2.54
30
0
40
0.5
0
CIRCLE
8
drills_PTH
10
21.59
20
2.54
30
0
40
0.5
0
CIRCLE
8
drills_PTH
10
19.05
20
2.54
30
0
40
0.5
0
CIRCLE
8
drills_PTH
10
16.51
20
2.54
30
0
40
0.5
0
CIRCLE
8
drills_PTH
10
13.97
20
2.54
30
0
40
0.5
0
CIRCLE
8
drills_PTH
10
11.43
20
2.54
30
0
40
0.5
0
CIRCLE
8
drills_PTH
10
8.89
20
2.54
30
0
40
0.5
0
CIRCLE
8
drills_PTH
10
6.3500000000000005
20
2.54
30
0
40
0.5
0
ENDSEC
0
EOF