0
SECTION
2
HEADER
9
$ANGDIR
70
1
9
$AUNITS
70
0
9
$PROJECTNAME
1
Adafruit TPA2016D2
9
$TDCREATE
40
2460638.70744151
9
$INSUNITS
70
4
0
ENDSEC
0
SECTION
2
ENTITIES
0
POLYLINE
66
1
8
outline
10
0.0
20
0.0
30
0.0
70
1
0
VERTEX
8
0
10
0
20
2.54
30
0
0
VERTEX
8
0
10
0.009665625
20
2.318625
30
0
0
VERTEX
8
0
10
0.038587500000000004
20
2.0989343750000002
30
0
0
VERTEX
8
0
10
0.08654687500000001
20
1.8826
30
0
0
VERTEX
8
0
10
0.15318125000000002
20
1.67126875
30
0
0
VERTEX
8
0
10
0.237978125
20
1.46655
30
0
0
VERTEX
8
0
10
0.340296875
20
1.27
30
0
0
VERTEX
8
0
10
0.45935312500000003
20
1.083115625
30
0
0
VERTEX
8
0
10
0.5942468750000001
20
0.9073187500000001
30
0
0
VERTEX
8
0
10
0.74395
20
0.74395
30
0
0
VERTEX
8
0
10
0.9073187500000001
20
0.5942468750000001
30
0
0
VERTEX
8
0
10
1.083115625
20
0.45935312500000003
30
0
0
VERTEX
8
0
10
1.27
20
0.340296875
30
0
0
VERTEX
8
0
10
1.46655
20
0.237978125
30
0
0
VERTEX
8
0
10
1.67126875
20
0.15318125000000002
30
0
0
VERTEX
8
0
10
1.8826
20
0.08654687500000001
30
0
0
VERTEX
8
0
10
2.0989343750000002
20
0.038587500000000004
30
0
0
VERTEX
8
0
10
2.318625
20
0.009665625
30
0
0
VERTEX
8
0
10
2.54
20
0
30
0
0
VERTEX
8
0
10
19.05
20
0
30
0
0
VERTEX
8
0
10
19.271375000000003
20
0.009665625
30
0
0
VERTEX
8
0
10
19.491065625
20
0.038587500000000004
30
0
0
VERTEX
8
0
10
19.7074
20
0.08654687500000001
30
0
0
VERTEX
8
0
10
19.91873125
20
0.15318125000000002
30
0
0
VERTEX
8
0
10
20.123450000000002
20
0.237978125
30
0
0
VERTEX
8
0
10
20.32
20
0.340296875
30
0
0
VERTEX
8
0
10
20.506884375000002
20
0.45935312500000003
30
0
0
VERTEX
8
0
10
20.68268125
20
0.5942468750000001
30
0
0
VERTEX
8
0
10
20.84605
20
0.74395
30
0
0
VERTEX
8
0
10
20.995753125
20
0.9073187500000001
30
0
0
VERTEX
8
0
10
21.130646875
20
1.083115625
30
0
0
VERTEX
8
0
10
21.249703125
20
1.27
30
0
0
VERTEX
8
0
10
21.352021875000002
20
1.46655
30
0
0
VERTEX
8
0
10
21.43681875
20
1.67126875
30
0
0
VERTEX
8
0
10
21.503453125
20
1.8826
30
0
0
VERTEX
8
0
10
21.5514125
20
2.0989343750000002
30
0
0
VERTEX
8
0
10
21.580334375
20
2.318625
30
0
0
VERTEX
8
0
10
21.59
20
2.54
30
0
0
VERTEX
8
0
10
21.59
20
25.400000000000002
30
0
0
VERTEX
8
0
10
21.580334375
20
25.621375
30
0
0
VERTEX
8
0
10
21.5514125
20
25.841065625000002
30
0
0
VERTEX
8
0
10
21.503453125
20
26.0574
30
0
0
VERTEX
8
0
10
21.43681875
20
26.268731250000002
30
0
0
VERTEX
8
0
10
21.352021875000002
20
26.47345
30
0
0
VERTEX
8
0
10
21.249703125
20
26.67
30
0
0
VERTEX
8
0
10
21.130646875
20
26.856884375
30
0
0
VERTEX
8
0
10
20.995753125
20
27.03268125
30
0
0
VERTEX
8
0
10
20.84605
20
27.19605
30
0
0
VERTEX
8
0
10
20.68268125
20
27.345753125
30
0
0
VERTEX
8
0
10
20.506884375000002
20
27.480646875
30
0
0
VERTEX
8
0
10
20.32
20
27.599703125
30
0
0
VERTEX
8
0
10
20.123450000000002
20
27.702021875
30
0
0
VERTEX
8
0
10
19.91873125
20
27.786818750000002
30
0
0
VERTEX
8
0
10
19.7074
20
27.853453125
30
0
0
VERTEX
8
0
10
19.491065625
20
27.901412500000003
30
0
0
VERTEX
8
0
10
19.271375000000003
20
27.930334375
30
0
0
VERTEX
8
0
10
19.05
20
27.94
30
0
0
VERTEX
8
0
10
2.54
20
27.94
30
0
0
VERTEX
8
0
10
2.318625
20
27.930334375
30
0
0
VERTEX
8
0
10
2.0989343750000002
20
27.901412500000003
30
0
0
VERTEX
8
0
10
1.8826
20
27.853453125
30
0
0
VERTEX
8
0
10
1.67126875
20
27.786818750000002
30
0
0
VERTEX
8
0
10
1.46655
20
27.702021875
30
0
0
VERTEX
8
0
10
1.27
20
27.599703125
30
0
0
VERTEX
8
0
10
1.083115625
20
27.480646875
30
0
0
VERTEX
8
0
10
0.9073187500000001
20
27.345753125
30
0
0
VERTEX
8
0
10
0.74395
20
27.19605
30
0
0
VERTEX
8
0
10
0.5942468750000001
20
27.03268125
30
0
0
VERTEX
8
0
10
0.45935312500000003
20
26.856884375
30
0
0
VERTEX
8
0
10
0.340296875
20
26.67
30
0
0
VERTEX
8
0
10
0.237978125
20
26.47345
30
0
0
VERTEX
8
0
10
0.15318125000000002
20
26.268731250000002
30
0
0
VERTEX
8
0
10
0.08654687500000001
20
26.0574
30
0
0
VERTEX
8
0
10
0.038587500000000004
20
25.841065625000002
30
0
0
VERTEX
8
0
10
0.009665625
20
25.621375
30
0
0
VERTEX
8
0
10
0
20
25.400000000000002
30
0
0
VERTEX
8
0
10
0
20
2.54
30
0
0
SEQEND
0
POLYLINE
66
1
8
1_copper
10
0.0
20
0.0
30
0.0
70
1
0
VERTEX
8
0
10
2.4130000000000003
20
26.289
30
0
0
VERTEX
8
0
10
0.635
20
26.289
30
0
0
VERTEX
8
0
10
0.635
20
24.511000000000003
30
0
0
VERTEX
8
0
10
2.4130000000000003
20
24.511000000000003
30
0
0
SEQEND
0
POLYLINE
66
1
8
16_copper
10
0.0
20
0.0
30
0.0
70
1
0
VERTEX
8
0
10
2.4130000000000003
20
26.289
30
0
0
VERTEX
8
0
10
0.635
20
26.289
30
0
0
VERTEX
8
0
10
0.635
20
24.511000000000003
30
0
0
VERTEX
8
0
10
2.4130000000000003
20
24.511000000000003
30
0
0
SEQEND
0
CIRCLE
8
drills_PTH
10
19.05
20
2.54
30
0
40
1.25
0
CIRCLE
8
drills_PTH
10
19.05
20
25.400000000000002
30
0
40
1.25
0
CIRCLE
8
drills_PTH
10
1.524
20
25.400000000000002
30
0
40
0.5
0
CIRCLE
8
drills_PTH
10
1.524
20
22.86
30
0
40
0.5
0
CIRCLE
8
drills_PTH
10
1.524
20
20.32
30
0
40
0.5
0
CIRCLE
8
drills_PTH
10
1.524
20
17.78
30
0
40
0.5
0
CIRCLE
8
drills_PTH
10
1.524
20
15.24
30
0
40
0.5
0
CIRCLE
8
drills_PTH
10
1.524
20
12.700000000000001
30
0
40
0.5
0
CIRCLE
8
drills_PTH
10
1.524
20
10.16
30
0
40
0.5
0
CIRCLE
8
drills_PTH
10
1.524
20
7.62
30
0
40
0.5
0
CIRCLE
8
drills_PTH
10
1.524
20
5.08
30
0
40
0.5
0
CIRCLE
8
drills_PTH
10
1.524
20
2.54
30
0
40
0.5
0
CIRCLE
8
drills_PTH
10
18.034000000000002
20
11.96
30
0
40
0.5
0
CIRCLE
8
drills_PTH
10
18.034000000000002
20
8.46
30
0
40
0.5
0
CIRCLE
8
drills_PTH
10
18.034000000000002
20
19.580000000000002
30
0
40
0.5
0
CIRCLE
8
drills_PTH
10
18.034000000000002
20
16.080000000000002
30
0
40
0.5
0
ENDSEC
0
EOF