M48
;GenerationSoftware,Autodesk,EAGLE,9.6.2*%
;CreationDate,2024-11-25T19:59:36Z*%
FMAT,2
ICI,OFF
METRIC,TZ,000.000
T11C0.350
T10C0.450
T9C0.700
T8C0.710
T7C0.813
T6C1.000
T5C1.016
T4C1.100
T3C1.200
T2C2.500
T1C2.921
%
G90
M71
T1
X20460Y46076
X3950Y76556
T2
X66040Y44158
X66040Y77178
X93980Y77178
X93980Y44158
X3310Y21320
X61227Y20993
X3988Y76556
T3
X54030Y45804
X59330Y45804
T4
X44728Y21979
X59690Y75700
X55880Y75700
X52070Y75700
X48260Y75700
X44450Y75700
X40640Y75700
X37108Y21979
X93248Y39218
X93248Y35408
X93248Y31598
X93248Y27788
X93248Y23978
X93248Y20168
X40918Y21979
X56158Y21979
X52348Y21979
X48538Y21979
T5
X66040Y58128
X66040Y73368
X66040Y70828
X66040Y68288
X66040Y65748
X66040Y63208
X66040Y60668
X70606Y39662
X73146Y39662
X78226Y39662
X9144Y20555
X11684Y20555
X14224Y20555
X16764Y20555
X19304Y20555
X21844Y20555
X68066Y39662
X26924Y20555
X29464Y20555
X32004Y20555
X75686Y39662
X66040Y47968
X66040Y50508
X65526Y39662
X26086Y37065
X22581Y37065
X14967Y37065
X18466Y37065
X66040Y53048
X66040Y55588
X24384Y20555
T6
X29985Y70841
X32525Y70841
X35065Y70841
X26810Y44806
X26810Y47346
X26810Y49886
X23635Y77191
X2045Y55601
X2045Y63221
X2045Y65761
X13475Y74651
X12205Y70841
X16015Y74651
X13475Y77191
X16015Y77191
X18555Y74651
X21095Y74651
X23635Y74651
X18555Y77191
X4585Y55601
X7125Y55601
X9665Y55601
X12205Y55601
X14745Y55601
X17285Y55601
X19825Y55601
X22365Y55601
X24905Y55601
X27445Y55601
X29985Y55601
X32525Y55601
X35065Y55601
X2045Y70841
X4585Y70841
X7125Y70841
X9665Y70841
X14745Y70841
X17285Y70841
X19825Y70841
X22365Y70841
X24905Y70841
X27445Y70841
T7
X44009Y64740
X41469Y67280
X38929Y64740
T8
X43942Y52324
X38862Y52324
X41402Y54864
T9
X53220Y60960
X53220Y64160
X53220Y66360
X53220Y68560
X48140Y68560
X48140Y64160
X48140Y60960
X61983Y60833
X61983Y64033
X61983Y66233
X61983Y68433
X56903Y68433
X56903Y66233
X56903Y64033
X56903Y60833
X48140Y66360
T10
X77470Y67310
X76200Y66040
X76200Y67310
X56515Y31115
X55499Y37211
X77470Y66040
T11
X24384Y61722
X30226Y64008
M30