G04 EAGLE Gerber RS-274X export*
G75*
%MOMM*%
%FSLAX34Y34*%
%LPD*%
%INBottom Copper*%
%IPPOS*%
%AMOC8*
5,1,8,0,0,1.08239X$1,22.5*%
G01*
%ADD10C,1.524000*%
%ADD11P,1.924489X8X22.500000*%
%ADD12C,1.778000*%
%ADD13R,0.300000X0.525000*%
%ADD14R,0.425000X0.300000*%
%ADD15R,1.300000X1.500000*%
%ADD16R,1.500000X1.300000*%
%ADD17R,1.000000X1.800000*%
%ADD18C,1.270000*%
%ADD19R,0.750000X0.300000*%
%ADD20R,0.900000X1.300000*%
%ADD21R,1.270000X0.660400*%
%ADD22R,1.150000X0.350000*%
%ADD23C,1.320800*%
%ADD24R,1.320800X1.320800*%
%ADD25R,1.000000X1.651000*%
%ADD26R,1.651000X1.000000*%
%ADD27R,1.650000X1.650000*%
%ADD28C,1.650000*%
%ADD29R,2.350000X1.550000*%
%ADD30C,1.800000*%
%ADD31C,3.516000*%
%ADD32P,1.649562X8X112.500000*%
%ADD33R,1.000000X1.100000*%
%ADD34R,1.100000X1.100000*%
%ADD35C,1.100000*%
%ADD36R,0.500000X0.630000*%
%ADD37R,0.500000X0.410000*%
%ADD38R,2.450000X1.900000*%
%ADD39R,0.700000X0.650000*%
%ADD40R,0.650000X0.700000*%
%ADD41R,1.217000X1.217000*%
%ADD42C,1.217000*%
%ADD43C,0.406400*%
%ADD44C,0.203200*%
%ADD45C,1.270000*%
%ADD46C,0.889000*%
%ADD47C,0.704000*%
%ADD48C,0.604000*%

G36*
X342411Y583768D02*
X342411Y583768D01*
X342433Y583772D01*
X342440Y583787D01*
X342449Y583793D01*
X342448Y583803D01*
X342455Y583819D01*
X342455Y598043D01*
X342443Y598062D01*
X342439Y598084D01*
X342424Y598091D01*
X342418Y598100D01*
X342408Y598099D01*
X342392Y598106D01*
X339852Y598106D01*
X339833Y598094D01*
X339811Y598090D01*
X339804Y598075D01*
X339795Y598069D01*
X339796Y598059D01*
X339789Y598043D01*
X339789Y583819D01*
X339801Y583800D01*
X339805Y583778D01*
X339820Y583771D01*
X339826Y583762D01*
X339836Y583763D01*
X339852Y583756D01*
X342392Y583756D01*
X342411Y583768D01*
G37*
G36*
X507543Y465982D02*
X507543Y465982D01*
X507539Y466004D01*
X507524Y466011D01*
X507518Y466020D01*
X507508Y466019D01*
X507492Y466026D01*
X504952Y466026D01*
X504933Y466014D01*
X504911Y466010D01*
X504904Y465995D01*
X504895Y465989D01*
X504896Y465979D01*
X504889Y465963D01*
X504889Y451739D01*
X504901Y451720D01*
X504905Y451698D01*
X504920Y451691D01*
X504926Y451682D01*
X504936Y451683D01*
X504952Y451676D01*
X507492Y451676D01*
X507511Y451688D01*
X507533Y451692D01*
X507540Y451707D01*
X507549Y451713D01*
X507548Y451723D01*
X507555Y451739D01*
X507555Y465963D01*
X507543Y465982D01*
G37*
G36*
X189249Y255324D02*
X189249Y255324D01*
X189271Y255328D01*
X189278Y255343D01*
X189287Y255349D01*
X189286Y255359D01*
X189293Y255375D01*
X189293Y269345D01*
X189281Y269364D01*
X189277Y269386D01*
X189262Y269393D01*
X189256Y269402D01*
X189246Y269401D01*
X189230Y269408D01*
X186690Y269408D01*
X186671Y269396D01*
X186649Y269392D01*
X186642Y269377D01*
X186633Y269371D01*
X186634Y269361D01*
X186627Y269345D01*
X186627Y255375D01*
X186639Y255356D01*
X186643Y255334D01*
X186658Y255327D01*
X186664Y255318D01*
X186674Y255319D01*
X186690Y255312D01*
X189230Y255312D01*
X189249Y255324D01*
G37*
G36*
X243859Y238814D02*
X243859Y238814D01*
X243881Y238818D01*
X243888Y238833D01*
X243897Y238839D01*
X243896Y238849D01*
X243903Y238865D01*
X243903Y252835D01*
X243891Y252854D01*
X243887Y252876D01*
X243872Y252883D01*
X243866Y252892D01*
X243856Y252891D01*
X243840Y252898D01*
X241300Y252898D01*
X241281Y252886D01*
X241259Y252882D01*
X241252Y252867D01*
X241243Y252861D01*
X241244Y252851D01*
X241237Y252835D01*
X241237Y238865D01*
X241249Y238846D01*
X241253Y238824D01*
X241268Y238817D01*
X241274Y238808D01*
X241284Y238809D01*
X241300Y238802D01*
X243840Y238802D01*
X243859Y238814D01*
G37*
D10*
X652780Y733679D02*
X668020Y733679D01*
X668020Y708279D02*
X652780Y708279D01*
X652780Y682879D02*
X668020Y682879D01*
X668020Y657479D02*
X652780Y657479D01*
X652780Y632079D02*
X668020Y632079D01*
X668020Y606679D02*
X652780Y606679D01*
X652780Y581279D02*
X668020Y581279D01*
X668020Y555879D02*
X652780Y555879D01*
X652780Y530479D02*
X668020Y530479D01*
X668020Y505079D02*
X652780Y505079D01*
X652780Y479679D02*
X668020Y479679D01*
D11*
X20447Y556006D03*
D12*
X20447Y632206D03*
X20447Y657606D03*
X134747Y746506D03*
X160147Y746506D03*
X134747Y771906D03*
X160147Y771906D03*
X185547Y746506D03*
X210947Y746506D03*
X236347Y746506D03*
X185547Y771906D03*
X236347Y771906D03*
X45847Y556006D03*
X71247Y556006D03*
X96647Y556006D03*
X122047Y556006D03*
X147447Y556006D03*
X172847Y556006D03*
X198247Y556006D03*
X223647Y556006D03*
X249047Y556006D03*
X274447Y556006D03*
X299847Y556006D03*
X325247Y556006D03*
X350647Y556006D03*
X20447Y708406D03*
X45847Y708406D03*
X71247Y708406D03*
X96647Y708406D03*
X122047Y708406D03*
X147447Y708406D03*
X172847Y708406D03*
X198247Y708406D03*
X223647Y708406D03*
X249047Y708406D03*
X274447Y708406D03*
X299847Y708406D03*
X325247Y708406D03*
X350647Y708406D03*
X268097Y448056D03*
X268097Y473456D03*
X268097Y498856D03*
D13*
X123042Y439797D03*
D14*
X122417Y447922D03*
X122417Y452922D03*
X122417Y457922D03*
X122417Y462922D03*
D13*
X123042Y471047D03*
X128042Y471047D03*
X133042Y471047D03*
X138042Y471047D03*
X143042Y471047D03*
X148042Y471047D03*
X153042Y471047D03*
X158042Y471047D03*
X163042Y471047D03*
X168042Y471047D03*
D14*
X168667Y462922D03*
X168667Y457922D03*
X168667Y452922D03*
X168667Y447922D03*
D13*
X168042Y439797D03*
X163042Y439797D03*
X158042Y439797D03*
X153042Y439797D03*
X148042Y439797D03*
X143042Y439797D03*
X138042Y439797D03*
X133042Y439797D03*
X128042Y439797D03*
D15*
X96368Y423418D03*
X77368Y423418D03*
X96672Y492252D03*
X115672Y492252D03*
D16*
X94742Y464668D03*
X94742Y445668D03*
D17*
X125422Y410972D03*
X150422Y410972D03*
D15*
X77622Y400812D03*
X96622Y400812D03*
D16*
X170942Y418948D03*
X170942Y399948D03*
D18*
X431292Y465582D03*
X432308Y448818D03*
X371602Y465582D03*
X371348Y447548D03*
D19*
X475328Y460128D03*
X475328Y455128D03*
X475328Y450128D03*
X475328Y445128D03*
X455328Y445128D03*
X455328Y450128D03*
X455328Y455128D03*
X455328Y460128D03*
D20*
X465328Y452628D03*
D10*
X782257Y404241D02*
X782257Y389001D01*
X756857Y389001D02*
X756857Y404241D01*
X731457Y404241D02*
X731457Y389001D01*
X706057Y389001D02*
X706057Y404241D01*
X680657Y404241D02*
X680657Y389001D01*
X655257Y389001D02*
X655257Y404241D01*
D15*
X535788Y497078D03*
X516788Y497078D03*
D21*
X506222Y474472D03*
X506222Y464058D03*
X506222Y453644D03*
D22*
X249818Y639422D03*
X249818Y645922D03*
X249818Y652422D03*
X266818Y652422D03*
X266818Y639422D03*
D15*
X263042Y592582D03*
X282042Y592582D03*
D16*
X304038Y583082D03*
X304038Y602082D03*
D15*
X280518Y616458D03*
X261518Y616458D03*
X239878Y598678D03*
X220878Y598678D03*
X323698Y654558D03*
X304698Y654558D03*
D16*
X221742Y641198D03*
X221742Y622198D03*
X199898Y621182D03*
X199898Y640182D03*
D15*
X245262Y678942D03*
X264262Y678942D03*
X303378Y677418D03*
X284378Y677418D03*
X336398Y631698D03*
X317398Y631698D03*
D23*
X440090Y647400D03*
D24*
X414690Y672800D03*
X389290Y647400D03*
D25*
X77980Y780150D03*
X77980Y728610D03*
X109980Y728610D03*
X109980Y780150D03*
D26*
X343270Y765300D03*
X291730Y765300D03*
X291730Y733300D03*
X343270Y733300D03*
X757036Y774698D03*
X705496Y774698D03*
X705496Y742698D03*
X757036Y742698D03*
X892926Y772920D03*
X841386Y772920D03*
X841386Y740920D03*
X892926Y740920D03*
D25*
X934718Y508392D03*
X934718Y559932D03*
X902718Y559932D03*
X902718Y508392D03*
X880108Y367422D03*
X880108Y418962D03*
X848108Y418962D03*
X848108Y367422D03*
X934718Y635392D03*
X934718Y686932D03*
X902718Y686932D03*
X902718Y635392D03*
D26*
X808112Y209552D03*
X859652Y209552D03*
X859652Y241552D03*
X808112Y241552D03*
X665872Y209552D03*
X717412Y209552D03*
X717412Y241552D03*
X665872Y241552D03*
X474102Y335282D03*
X525642Y335282D03*
X525642Y367282D03*
X474102Y367282D03*
D27*
X406400Y757000D03*
D28*
X444500Y757000D03*
X482600Y757000D03*
X520700Y757000D03*
X558800Y757000D03*
X596900Y757000D03*
D27*
X561580Y219790D03*
D28*
X523480Y219790D03*
X485380Y219790D03*
X447280Y219790D03*
X409180Y219790D03*
X371080Y219790D03*
D27*
X932481Y392176D03*
D28*
X932481Y354076D03*
X932481Y315976D03*
X932481Y277876D03*
X932481Y239776D03*
X932481Y201676D03*
D29*
X720688Y709168D03*
X763688Y709168D03*
D30*
X540300Y458040D03*
X593300Y458040D03*
D10*
X91440Y213170D02*
X91440Y197930D01*
X116840Y197930D02*
X116840Y213170D01*
X142240Y213170D02*
X142240Y197930D01*
X167640Y197930D02*
X167640Y213170D01*
X193040Y213170D02*
X193040Y197930D01*
X218440Y197930D02*
X218440Y213170D01*
X243840Y213170D02*
X243840Y197930D01*
X269240Y197930D02*
X269240Y213170D01*
X294640Y213170D02*
X294640Y197930D01*
X320040Y197930D02*
X320040Y213170D01*
D31*
X939800Y771779D03*
X660400Y771779D03*
X660400Y441579D03*
X939800Y441579D03*
D21*
X187960Y267567D03*
X187960Y257153D03*
X242570Y251057D03*
X242570Y240643D03*
D32*
X260858Y370650D03*
X225806Y370650D03*
X149670Y370650D03*
X184658Y370650D03*
D18*
X117345Y284206D03*
X127000Y302260D03*
X134620Y350520D03*
X130810Y326390D03*
D33*
X110100Y520700D03*
X93100Y520700D03*
D34*
X532200Y609600D03*
D35*
X532200Y641600D03*
X532200Y663600D03*
X532200Y685600D03*
X481400Y685600D03*
X481400Y663600D03*
X481400Y641600D03*
X481400Y609600D03*
D36*
X580234Y548260D03*
X573734Y548260D03*
X567234Y548260D03*
X560734Y548260D03*
D37*
X560734Y578060D03*
X567234Y578060D03*
X573734Y578060D03*
X580234Y578060D03*
D38*
X570484Y566510D03*
D16*
X542544Y572110D03*
X542544Y553110D03*
X517144Y553110D03*
X517144Y572110D03*
D15*
X519074Y529590D03*
X538074Y529590D03*
D31*
X39878Y765556D03*
X33100Y213200D03*
D21*
X341122Y606552D03*
X341122Y596138D03*
X341122Y585724D03*
D39*
X323342Y600348D03*
X323342Y586848D03*
D40*
X216808Y662178D03*
X203308Y662178D03*
D18*
X879602Y334518D03*
X720598Y682498D03*
X368808Y772668D03*
X368808Y745998D03*
X380238Y719328D03*
X211582Y678942D03*
X484378Y710438D03*
D36*
X618588Y548768D03*
X612088Y548768D03*
X605588Y548768D03*
X599088Y548768D03*
D37*
X599088Y578568D03*
X605588Y578568D03*
X612088Y578568D03*
X618588Y578568D03*
D38*
X608838Y567018D03*
D15*
X578002Y524002D03*
X597002Y524002D03*
D18*
X578358Y497078D03*
D34*
X619830Y608330D03*
D35*
X619830Y640330D03*
X619830Y662330D03*
X619830Y684330D03*
X569030Y684330D03*
X569030Y662330D03*
X569030Y640330D03*
X569030Y608330D03*
D18*
X522478Y710438D03*
D31*
X612267Y209931D03*
D25*
X20830Y515990D03*
X20830Y464450D03*
X52830Y464450D03*
X52830Y515990D03*
X19560Y375020D03*
X19560Y323480D03*
X51560Y323480D03*
X51560Y375020D03*
D18*
X332740Y494030D03*
X774700Y585470D03*
X878840Y302260D03*
D41*
X388620Y523240D03*
D42*
X414020Y548640D03*
X439420Y523240D03*
D43*
X50419Y662178D02*
X20447Y632206D01*
X50419Y662178D02*
X203308Y662178D01*
D44*
X123042Y471047D02*
X123042Y463547D01*
X122417Y462922D01*
X125594Y461962D02*
X127082Y460474D01*
X127082Y450370D02*
X125594Y448882D01*
X127082Y450370D02*
X127082Y460474D01*
X123377Y461962D02*
X122417Y462922D01*
X123377Y461962D02*
X125594Y461962D01*
X125594Y448882D02*
X123377Y448882D01*
X122417Y447922D01*
X142082Y467370D02*
X142082Y470087D01*
X143042Y471047D01*
X135186Y460474D02*
X127082Y460474D01*
X135186Y460474D02*
X142082Y467370D01*
X167082Y470087D02*
X168042Y471047D01*
X167082Y470087D02*
X167082Y467370D01*
X160186Y460474D01*
X135186Y460474D01*
X166219Y460474D02*
X168667Y462922D01*
X166219Y460474D02*
X160186Y460474D01*
X166219Y460474D02*
X166219Y460370D01*
X168667Y457922D01*
X168667Y452922D01*
X143042Y442514D02*
X143042Y439797D01*
X143042Y442514D02*
X140594Y444962D01*
X132490Y444962D02*
X127082Y450370D01*
X132490Y444962D02*
X140594Y444962D01*
X163170Y426720D02*
X170942Y418948D01*
X163170Y426720D02*
X148590Y426720D01*
X143042Y432268D01*
X143042Y439797D01*
X77368Y423418D02*
X77368Y401066D01*
X77622Y400812D01*
D43*
X178858Y267567D02*
X116840Y205550D01*
X178858Y267567D02*
X187960Y267567D01*
X717412Y241552D02*
X741509Y241552D01*
X826396Y241552D02*
X859652Y241552D01*
X826396Y241552D02*
X817840Y250108D01*
X750065Y250108D02*
X741509Y241552D01*
X750065Y250108D02*
X817840Y250108D01*
D45*
X949621Y308876D02*
X949621Y323076D01*
X932481Y340216D02*
X932481Y354076D01*
X932481Y291736D02*
X932481Y277876D01*
X949621Y323076D02*
X932481Y340216D01*
X949621Y308876D02*
X932481Y291736D01*
X949621Y246876D02*
X949621Y232676D01*
X932481Y264016D02*
X932481Y277876D01*
X932481Y215536D02*
X932481Y201676D01*
X949621Y246876D02*
X932481Y264016D01*
X949621Y232676D02*
X932481Y215536D01*
D46*
X768184Y730713D02*
X745888Y730713D01*
X733903Y742698D02*
X705496Y742698D01*
X733903Y742698D02*
X745888Y730713D01*
X768184Y730713D02*
X778391Y740920D01*
X841386Y740920D01*
X859280Y740920D01*
X902718Y697482D02*
X902718Y686932D01*
X902718Y697482D02*
X859280Y740920D01*
X890733Y646540D02*
X890733Y624244D01*
X902718Y658525D02*
X902718Y686932D01*
X902718Y612259D02*
X902718Y559932D01*
X890733Y646540D02*
X902718Y658525D01*
X890733Y624244D02*
X902718Y612259D01*
X767952Y396621D02*
X756857Y396621D01*
X767952Y396621D02*
X790293Y418962D01*
X848108Y418962D01*
D45*
X764921Y505079D02*
X660400Y505079D01*
X825500Y444500D02*
X850900Y444500D01*
X863600Y431800D01*
X863600Y406400D01*
X877824Y392176D01*
X932481Y392176D01*
X825500Y444500D02*
X764921Y505079D01*
X720688Y709168D02*
X705956Y723900D01*
X674751Y733679D02*
X660400Y733679D01*
X684530Y723900D02*
X705956Y723900D01*
X684530Y723900D02*
X674751Y733679D01*
X720688Y709168D02*
X720688Y682588D01*
X720598Y682498D01*
D43*
X727140Y200996D02*
X707684Y200996D01*
X735696Y209552D02*
X808112Y209552D01*
X699128Y209552D02*
X665872Y209552D01*
X727140Y200996D02*
X735696Y209552D01*
X707684Y200996D02*
X699128Y209552D01*
D46*
X757036Y774698D02*
X820031Y774698D01*
X830238Y784905D01*
X880941Y784905D01*
X892926Y772920D01*
X934718Y663799D02*
X934718Y635392D01*
X934718Y663799D02*
X946703Y675784D01*
X946703Y719143D02*
X892926Y772920D01*
X946703Y719143D02*
X946703Y675784D01*
X934718Y635392D02*
X934718Y618120D01*
X934718Y536799D02*
X934718Y508392D01*
X934718Y536799D02*
X946703Y548784D01*
X946703Y606135D02*
X934718Y618120D01*
X946703Y606135D02*
X946703Y548784D01*
D45*
X784797Y394081D02*
X782257Y396621D01*
X784797Y394081D02*
X784797Y379622D01*
X671874Y266700D01*
X647700Y266700D01*
X622300Y241300D01*
X355600Y241300D01*
X330200Y266700D02*
X330200Y419100D01*
X330200Y266700D02*
X355600Y241300D01*
D44*
X122417Y452922D02*
X101996Y452922D01*
X94742Y445668D01*
X96368Y444042D01*
X96368Y423418D01*
D43*
X436170Y571168D02*
X448242Y583240D01*
X355678Y571168D02*
X341122Y585724D01*
X355678Y571168D02*
X436170Y571168D01*
D44*
X138042Y439797D02*
X138042Y420758D01*
X152400Y406400D01*
X152400Y408994D01*
X150422Y410972D01*
X159918Y410972D02*
X170942Y399948D01*
X159918Y410972D02*
X150422Y410972D01*
X133042Y418592D02*
X133042Y439797D01*
X133042Y418592D02*
X125422Y410972D01*
X115262Y400812D01*
X96622Y400812D01*
X138042Y471047D02*
X138042Y481718D01*
X127508Y492252D02*
X115672Y492252D01*
X127508Y492252D02*
X138042Y481718D01*
X101488Y457922D02*
X94742Y464668D01*
X101488Y457922D02*
X122417Y457922D01*
D47*
X554990Y372110D03*
D44*
X565150Y361950D01*
X565150Y311150D01*
D47*
X565150Y311150D03*
D43*
X280518Y594106D02*
X280518Y616458D01*
X280518Y594106D02*
X282042Y592582D01*
X291542Y583082D01*
X304038Y583082D01*
X232594Y622198D02*
X221742Y622198D01*
X220726Y621182D01*
X199898Y621182D01*
X220878Y621334D02*
X221742Y622198D01*
X220878Y621334D02*
X220878Y598678D01*
X232594Y622198D02*
X236220Y625824D01*
X236220Y635000D01*
X240642Y639422D01*
X249818Y639422D01*
X304038Y611967D02*
X304038Y602082D01*
X282598Y639422D02*
X266818Y639422D01*
X292100Y629920D02*
X292100Y619760D01*
X299893Y611967D01*
X304038Y611967D01*
X292100Y629920D02*
X282598Y639422D01*
X304038Y602082D02*
X321608Y602082D01*
X323342Y600348D01*
X221742Y641198D02*
X216808Y646132D01*
X216808Y662178D01*
X226466Y645922D02*
X249818Y645922D01*
X226466Y645922D02*
X221742Y641198D01*
D44*
X249818Y645922D02*
X250580Y645160D01*
X256540Y645160D01*
X258528Y643172D01*
X261518Y633630D02*
X261518Y616458D01*
X258528Y636620D02*
X258528Y643172D01*
X258528Y636620D02*
X261518Y633630D01*
X309016Y640080D02*
X317398Y631698D01*
X309016Y640080D02*
X302260Y640080D01*
D48*
X302260Y640080D03*
X243840Y617220D03*
D44*
X260756Y617220D01*
X261518Y616458D01*
D43*
X304698Y654558D02*
X304698Y676098D01*
X303378Y677418D01*
X250176Y652780D02*
X249818Y652422D01*
X250176Y652780D02*
X254000Y652780D01*
X256540Y655320D01*
X256540Y671220D02*
X264262Y678942D01*
X256540Y671220D02*
X256540Y655320D01*
X274322Y668445D02*
X276405Y666362D01*
X292351Y666362D01*
X274322Y668445D02*
X274322Y668882D01*
X302087Y676098D02*
X304698Y676098D01*
X274322Y668882D02*
X264262Y678942D01*
X292351Y666362D02*
X302087Y676098D01*
X323698Y654558D02*
X336398Y641858D01*
X336398Y631698D01*
X293322Y686391D02*
X295405Y688474D01*
X293322Y686362D02*
X284378Y677418D01*
X293322Y686362D02*
X293322Y686391D01*
X295405Y688474D02*
X312286Y688474D01*
X353360Y647400D02*
X389290Y647400D01*
X353360Y647400D02*
X312286Y688474D01*
D46*
X832980Y772920D02*
X841386Y772920D01*
X832980Y772920D02*
X824344Y764284D01*
X778622Y764284D02*
X757036Y742698D01*
X778622Y764284D02*
X824344Y764284D01*
X902718Y508392D02*
X880108Y485782D01*
X880108Y418962D01*
X934718Y686932D02*
X892926Y728724D01*
X892926Y740920D01*
D43*
X749412Y241552D02*
X717412Y209552D01*
X749412Y241552D02*
X808112Y241552D01*
D46*
X934718Y603392D02*
X902718Y635392D01*
X934718Y603392D02*
X934718Y559932D01*
D43*
X406400Y704574D02*
X406400Y757000D01*
X452536Y645311D02*
X431170Y623945D01*
X452536Y645311D02*
X452536Y658438D01*
X406400Y704574D01*
D47*
X762000Y673100D03*
D45*
X762000Y707480D01*
X763688Y709168D01*
D47*
X762000Y660400D03*
X774700Y673100D03*
X774700Y660400D03*
D45*
X762000Y660400D02*
X762000Y673100D01*
X774700Y673100D01*
X774700Y660400D02*
X762000Y660400D01*
X774700Y660400D02*
X774700Y673100D01*
D43*
X245262Y678942D02*
X211582Y678942D01*
X41783Y678942D01*
X20447Y657606D01*
X311965Y618102D02*
X327660Y618102D01*
X330200Y620642D01*
X344371Y620642D01*
X277645Y652422D02*
X266818Y652422D01*
X277645Y652422D02*
X311965Y618102D01*
X344371Y620642D02*
X361269Y637540D01*
X398780Y637540D01*
X414690Y653450D01*
X414690Y672800D01*
X440090Y647400D02*
X430230Y637540D01*
X398780Y637540D01*
X187960Y257153D02*
X167640Y236833D01*
X167640Y205550D01*
X242570Y206820D02*
X242570Y240643D01*
X242570Y206820D02*
X243840Y205550D01*
X96647Y534153D02*
X96647Y556006D01*
X96647Y534153D02*
X110100Y520700D01*
X239878Y598678D02*
X256946Y598678D01*
X263042Y592582D01*
X62230Y366150D02*
X19560Y323480D01*
X62230Y489830D02*
X93100Y520700D01*
X62230Y489830D02*
X62230Y366150D01*
X20830Y419860D02*
X20830Y464450D01*
X51560Y389130D02*
X51560Y375020D01*
X51560Y389130D02*
X20830Y419860D01*
M02*
