G04 EAGLE Gerber RS-274X export*
G75*
%MOMM*%
%FSLAX34Y34*%
%LPD*%
%IN*%
%IPPOS*%
%AMOC8*
5,1,8,0,0,1.08239X$1,22.5*%
G01*
%ADD10C,0.254000*%


D10*
X0Y187706D02*
X18Y187030D01*
X96Y186359D01*
X231Y185697D01*
X424Y185049D01*
X672Y184420D01*
X974Y183816D01*
X1328Y183240D01*
X1731Y182697D01*
X2179Y182191D01*
X2670Y181726D01*
X3199Y181306D01*
X3764Y180933D01*
X4358Y180612D01*
X4978Y180343D01*
X5619Y180129D01*
X6277Y179972D01*
X6945Y179873D01*
X7620Y179832D01*
X966978Y180086D01*
X967642Y180115D01*
X968301Y180202D01*
X968950Y180346D01*
X969584Y180546D01*
X970198Y180800D01*
X970788Y181107D01*
X971349Y181464D01*
X971876Y181869D01*
X972366Y182318D01*
X972815Y182808D01*
X973220Y183335D01*
X973577Y183896D01*
X973884Y184486D01*
X974138Y185100D01*
X974338Y185734D01*
X974482Y186383D01*
X974569Y187042D01*
X974598Y187706D01*
X974598Y792226D01*
X974569Y792890D01*
X974482Y793549D01*
X974338Y794198D01*
X974138Y794832D01*
X973884Y795446D01*
X973577Y796036D01*
X973220Y796597D01*
X972815Y797124D01*
X972366Y797614D01*
X971876Y798063D01*
X971349Y798468D01*
X970788Y798825D01*
X970198Y799132D01*
X969584Y799386D01*
X968950Y799586D01*
X968301Y799730D01*
X967642Y799817D01*
X966978Y799846D01*
X7620Y799846D01*
X6956Y799817D01*
X6297Y799730D01*
X5648Y799586D01*
X5014Y799386D01*
X4400Y799132D01*
X3810Y798825D01*
X3249Y798468D01*
X2722Y798063D01*
X2232Y797614D01*
X1783Y797124D01*
X1378Y796597D01*
X1021Y796036D01*
X714Y795446D01*
X460Y794832D01*
X260Y794198D01*
X116Y793549D01*
X29Y792890D01*
X0Y792226D01*
X0Y187706D01*
X219202Y460234D02*
X219128Y459194D01*
X218979Y458161D01*
X218757Y457142D01*
X218463Y456141D01*
X218099Y455163D01*
X217666Y454214D01*
X217166Y453299D01*
X216602Y452421D01*
X215976Y451586D01*
X215293Y450798D01*
X214555Y450060D01*
X213767Y449377D01*
X212932Y448752D01*
X212054Y448187D01*
X211139Y447688D01*
X210190Y447254D01*
X209212Y446890D01*
X208211Y446596D01*
X207192Y446374D01*
X206159Y446225D01*
X205119Y446151D01*
X204075Y446151D01*
X203035Y446225D01*
X202002Y446374D01*
X200983Y446596D01*
X199982Y446890D01*
X199004Y447254D01*
X198055Y447688D01*
X197140Y448187D01*
X196262Y448752D01*
X195427Y449377D01*
X194639Y450060D01*
X193901Y450798D01*
X193218Y451586D01*
X192593Y452421D01*
X192028Y453299D01*
X191529Y454214D01*
X191095Y455163D01*
X190731Y456141D01*
X190437Y457142D01*
X190215Y458161D01*
X190066Y459194D01*
X189992Y460234D01*
X189992Y461278D01*
X190066Y462318D01*
X190215Y463351D01*
X190437Y464370D01*
X190731Y465371D01*
X191095Y466349D01*
X191529Y467298D01*
X192028Y468213D01*
X192593Y469091D01*
X193218Y469926D01*
X193901Y470714D01*
X194639Y471452D01*
X195427Y472135D01*
X196262Y472761D01*
X197140Y473325D01*
X198055Y473825D01*
X199004Y474258D01*
X199982Y474622D01*
X200983Y474916D01*
X202002Y475138D01*
X203035Y475287D01*
X204075Y475361D01*
X205119Y475361D01*
X206159Y475287D01*
X207192Y475138D01*
X208211Y474916D01*
X209212Y474622D01*
X210190Y474258D01*
X211139Y473825D01*
X212054Y473325D01*
X212932Y472761D01*
X213767Y472135D01*
X214555Y471452D01*
X215293Y470714D01*
X215976Y469926D01*
X216602Y469091D01*
X217166Y468213D01*
X217666Y467298D01*
X218099Y466349D01*
X218463Y465371D01*
X218757Y464370D01*
X218979Y463351D01*
X219128Y462318D01*
X219202Y461278D01*
X219202Y460234D01*
X54102Y765034D02*
X54028Y763994D01*
X53879Y762961D01*
X53657Y761942D01*
X53363Y760941D01*
X52999Y759963D01*
X52566Y759014D01*
X52066Y758099D01*
X51502Y757221D01*
X50876Y756386D01*
X50193Y755598D01*
X49455Y754860D01*
X48667Y754177D01*
X47832Y753552D01*
X46954Y752987D01*
X46039Y752488D01*
X45090Y752054D01*
X44112Y751690D01*
X43111Y751396D01*
X42092Y751174D01*
X41059Y751025D01*
X40019Y750951D01*
X38975Y750951D01*
X37935Y751025D01*
X36902Y751174D01*
X35883Y751396D01*
X34882Y751690D01*
X33904Y752054D01*
X32955Y752488D01*
X32040Y752987D01*
X31162Y753552D01*
X30327Y754177D01*
X29539Y754860D01*
X28801Y755598D01*
X28118Y756386D01*
X27493Y757221D01*
X26928Y758099D01*
X26429Y759014D01*
X25995Y759963D01*
X25631Y760941D01*
X25337Y761942D01*
X25115Y762961D01*
X24966Y763994D01*
X24892Y765034D01*
X24892Y766078D01*
X24966Y767118D01*
X25115Y768151D01*
X25337Y769170D01*
X25631Y770171D01*
X25995Y771149D01*
X26429Y772098D01*
X26928Y773013D01*
X27493Y773891D01*
X28118Y774726D01*
X28801Y775514D01*
X29539Y776252D01*
X30327Y776935D01*
X31162Y777561D01*
X32040Y778125D01*
X32955Y778625D01*
X33904Y779058D01*
X34882Y779422D01*
X35883Y779716D01*
X36902Y779938D01*
X37935Y780087D01*
X38975Y780161D01*
X40019Y780161D01*
X41059Y780087D01*
X42092Y779938D01*
X43111Y779716D01*
X44112Y779422D01*
X45090Y779058D01*
X46039Y778625D01*
X46954Y778125D01*
X47832Y777561D01*
X48667Y776935D01*
X49455Y776252D01*
X50193Y775514D01*
X50876Y774726D01*
X51502Y773891D01*
X52066Y773013D01*
X52566Y772098D01*
X52999Y771149D01*
X53363Y770171D01*
X53657Y769170D01*
X53879Y768151D01*
X54028Y767118D01*
X54102Y766078D01*
X54102Y765034D01*
M02*
