G04 EAGLE Gerber RS-274X export*
G75*
%MOMM*%
%FSLAX34Y34*%
%LPD*%
%INSoldermask Top*%
%IPPOS*%
%AMOC8*
5,1,8,0,0,1.08239X$1,22.5*%
G01*
%ADD10C,1.651000*%
%ADD11C,3.048000*%
%ADD12P,2.061953X8X22.500000*%
%ADD13C,1.905000*%
%ADD14R,1.427000X1.627000*%
%ADD15R,1.127000X1.397000*%
%ADD16R,1.327000X0.527000*%
%ADD17R,1.627000X1.427000*%
%ADD18R,0.787400X1.397000*%
%ADD19R,0.327000X0.827000*%
%ADD20R,0.827000X0.327000*%
%ADD21R,1.077000X1.077000*%
%ADD22R,1.627000X1.227000*%
%ADD23R,1.397000X0.787400*%
%ADD24C,1.447800*%
%ADD25R,1.447800X1.447800*%
%ADD26R,1.777000X1.777000*%
%ADD27C,1.777000*%
%ADD28C,1.927000*%
%ADD29C,3.643000*%
%ADD30P,1.787026X8X112.500000*%
%ADD31R,1.227000X1.227000*%
%ADD32C,1.227000*%
%ADD33R,1.327000X1.327000*%
%ADD34C,1.397000*%
%ADD35R,1.344000X1.344000*%
%ADD36C,1.344000*%
%ADD37C,0.831000*%
%ADD38C,0.731000*%

G36*
X588583Y296430D02*
X588583Y296430D01*
X588649Y296432D01*
X588692Y296450D01*
X588739Y296458D01*
X588796Y296492D01*
X588856Y296517D01*
X588891Y296548D01*
X588932Y296573D01*
X588974Y296624D01*
X589022Y296668D01*
X589044Y296710D01*
X589073Y296747D01*
X589094Y296809D01*
X589125Y296868D01*
X589133Y296922D01*
X589145Y296959D01*
X589144Y296999D01*
X589152Y297053D01*
X589152Y300863D01*
X589141Y300928D01*
X589139Y300994D01*
X589121Y301037D01*
X589113Y301084D01*
X589079Y301141D01*
X589054Y301201D01*
X589023Y301236D01*
X588998Y301277D01*
X588947Y301319D01*
X588903Y301367D01*
X588861Y301389D01*
X588824Y301418D01*
X588762Y301439D01*
X588703Y301470D01*
X588649Y301478D01*
X588612Y301490D01*
X588572Y301489D01*
X588518Y301497D01*
X585978Y301497D01*
X585913Y301486D01*
X585847Y301484D01*
X585804Y301466D01*
X585757Y301458D01*
X585700Y301424D01*
X585640Y301399D01*
X585605Y301368D01*
X585564Y301343D01*
X585523Y301292D01*
X585474Y301248D01*
X585452Y301206D01*
X585423Y301169D01*
X585402Y301107D01*
X585371Y301048D01*
X585363Y300994D01*
X585351Y300957D01*
X585351Y300953D01*
X585351Y300952D01*
X585352Y300917D01*
X585344Y300863D01*
X585344Y297053D01*
X585355Y296988D01*
X585357Y296922D01*
X585375Y296879D01*
X585383Y296832D01*
X585417Y296775D01*
X585442Y296715D01*
X585473Y296680D01*
X585498Y296639D01*
X585549Y296598D01*
X585593Y296549D01*
X585635Y296527D01*
X585672Y296498D01*
X585734Y296477D01*
X585793Y296446D01*
X585847Y296438D01*
X585884Y296426D01*
X585924Y296427D01*
X585978Y296419D01*
X588518Y296419D01*
X588583Y296430D01*
G37*
G36*
X458662Y410095D02*
X458662Y410095D01*
X458728Y410097D01*
X458771Y410115D01*
X458818Y410123D01*
X458875Y410157D01*
X458935Y410182D01*
X458970Y410213D01*
X459011Y410238D01*
X459053Y410289D01*
X459101Y410333D01*
X459123Y410375D01*
X459152Y410412D01*
X459173Y410474D01*
X459204Y410533D01*
X459212Y410587D01*
X459224Y410624D01*
X459223Y410664D01*
X459231Y410718D01*
X459231Y413258D01*
X459220Y413323D01*
X459218Y413389D01*
X459200Y413432D01*
X459192Y413479D01*
X459158Y413536D01*
X459133Y413596D01*
X459102Y413631D01*
X459077Y413672D01*
X459026Y413714D01*
X458982Y413762D01*
X458940Y413784D01*
X458903Y413813D01*
X458841Y413834D01*
X458782Y413865D01*
X458728Y413873D01*
X458691Y413885D01*
X458651Y413884D01*
X458597Y413892D01*
X454787Y413892D01*
X454722Y413881D01*
X454656Y413879D01*
X454613Y413861D01*
X454566Y413853D01*
X454509Y413819D01*
X454449Y413794D01*
X454414Y413763D01*
X454373Y413738D01*
X454332Y413687D01*
X454283Y413643D01*
X454261Y413601D01*
X454232Y413564D01*
X454211Y413502D01*
X454180Y413443D01*
X454172Y413389D01*
X454160Y413352D01*
X454160Y413349D01*
X454161Y413312D01*
X454153Y413258D01*
X454153Y410718D01*
X454164Y410653D01*
X454166Y410587D01*
X454184Y410544D01*
X454192Y410497D01*
X454226Y410440D01*
X454251Y410380D01*
X454282Y410345D01*
X454307Y410304D01*
X454358Y410263D01*
X454402Y410214D01*
X454444Y410192D01*
X454481Y410163D01*
X454543Y410142D01*
X454602Y410111D01*
X454656Y410103D01*
X454693Y410091D01*
X454733Y410092D01*
X454787Y410084D01*
X458597Y410084D01*
X458662Y410095D01*
G37*
G36*
X401512Y410095D02*
X401512Y410095D01*
X401578Y410097D01*
X401621Y410115D01*
X401668Y410123D01*
X401725Y410157D01*
X401785Y410182D01*
X401820Y410213D01*
X401861Y410238D01*
X401903Y410289D01*
X401951Y410333D01*
X401973Y410375D01*
X402002Y410412D01*
X402023Y410474D01*
X402054Y410533D01*
X402062Y410587D01*
X402074Y410624D01*
X402073Y410664D01*
X402081Y410718D01*
X402081Y413258D01*
X402070Y413323D01*
X402068Y413389D01*
X402050Y413432D01*
X402042Y413479D01*
X402008Y413536D01*
X401983Y413596D01*
X401952Y413631D01*
X401927Y413672D01*
X401876Y413714D01*
X401832Y413762D01*
X401790Y413784D01*
X401753Y413813D01*
X401691Y413834D01*
X401632Y413865D01*
X401578Y413873D01*
X401541Y413885D01*
X401501Y413884D01*
X401447Y413892D01*
X397637Y413892D01*
X397572Y413881D01*
X397506Y413879D01*
X397463Y413861D01*
X397416Y413853D01*
X397359Y413819D01*
X397299Y413794D01*
X397264Y413763D01*
X397223Y413738D01*
X397182Y413687D01*
X397133Y413643D01*
X397111Y413601D01*
X397082Y413564D01*
X397061Y413502D01*
X397030Y413443D01*
X397022Y413389D01*
X397010Y413352D01*
X397010Y413349D01*
X397011Y413312D01*
X397003Y413258D01*
X397003Y410718D01*
X397014Y410653D01*
X397016Y410587D01*
X397034Y410544D01*
X397042Y410497D01*
X397076Y410440D01*
X397101Y410380D01*
X397132Y410345D01*
X397157Y410304D01*
X397208Y410263D01*
X397252Y410214D01*
X397294Y410192D01*
X397331Y410163D01*
X397393Y410142D01*
X397452Y410111D01*
X397506Y410103D01*
X397543Y410091D01*
X397583Y410092D01*
X397637Y410084D01*
X401447Y410084D01*
X401512Y410095D01*
G37*
D10*
X652780Y733679D02*
X668020Y733679D01*
X668020Y708279D02*
X652780Y708279D01*
X652780Y682879D02*
X668020Y682879D01*
X668020Y657479D02*
X652780Y657479D01*
X652780Y632079D02*
X668020Y632079D01*
X668020Y606679D02*
X652780Y606679D01*
X652780Y581279D02*
X668020Y581279D01*
X668020Y555879D02*
X652780Y555879D01*
X652780Y530479D02*
X668020Y530479D01*
X668020Y505079D02*
X652780Y505079D01*
X652780Y479679D02*
X668020Y479679D01*
D11*
X204597Y460756D03*
X39497Y765556D03*
D12*
X20447Y556006D03*
D13*
X20447Y632206D03*
X20447Y657606D03*
X134747Y746506D03*
X160147Y746506D03*
X134747Y771906D03*
X160147Y771906D03*
X185547Y746506D03*
X210947Y746506D03*
X236347Y746506D03*
X185547Y771906D03*
X236347Y771906D03*
X45847Y556006D03*
X71247Y556006D03*
X96647Y556006D03*
X122047Y556006D03*
X147447Y556006D03*
X172847Y556006D03*
X198247Y556006D03*
X223647Y556006D03*
X249047Y556006D03*
X274447Y556006D03*
X299847Y556006D03*
X325247Y556006D03*
X350647Y556006D03*
X20447Y708406D03*
X45847Y708406D03*
X71247Y708406D03*
X96647Y708406D03*
X122047Y708406D03*
X147447Y708406D03*
X172847Y708406D03*
X198247Y708406D03*
X223647Y708406D03*
X249047Y708406D03*
X274447Y708406D03*
X299847Y708406D03*
X325247Y708406D03*
X350647Y708406D03*
X268097Y448056D03*
X268097Y473456D03*
X268097Y498856D03*
D14*
X398932Y386588D03*
X417932Y386588D03*
X458318Y386842D03*
X439318Y386842D03*
X400202Y324358D03*
X419202Y324358D03*
X459588Y324612D03*
X440588Y324612D03*
D15*
X405638Y345092D03*
X396138Y365092D03*
X415138Y365092D03*
X447548Y345092D03*
X438048Y365092D03*
X457048Y365092D03*
D16*
X419252Y296568D03*
X419252Y290068D03*
X419252Y283568D03*
X438252Y283568D03*
X438252Y290068D03*
X438252Y296568D03*
D17*
X388112Y282092D03*
X388112Y301092D03*
D18*
X384048Y411988D03*
X394462Y411988D03*
X404876Y411988D03*
X441198Y411988D03*
X451612Y411988D03*
X462026Y411988D03*
D10*
X782257Y404241D02*
X782257Y389001D01*
X756857Y389001D02*
X756857Y404241D01*
X731457Y404241D02*
X731457Y389001D01*
X706057Y389001D02*
X706057Y404241D01*
X680657Y404241D02*
X680657Y389001D01*
X655257Y389001D02*
X655257Y404241D01*
D19*
X541592Y312842D03*
X545592Y312842D03*
X549592Y312842D03*
D20*
X556092Y319342D03*
X556092Y323342D03*
X556092Y327342D03*
D19*
X549592Y333842D03*
X545592Y333842D03*
X541592Y333842D03*
D20*
X535092Y327342D03*
X535092Y323342D03*
X535092Y319342D03*
D21*
X545592Y323342D03*
D22*
X568560Y392590D03*
X568560Y417990D03*
X479560Y417990D03*
X479560Y392590D03*
D17*
X493268Y321158D03*
X493268Y302158D03*
X516382Y282092D03*
X516382Y301092D03*
X537718Y297028D03*
X537718Y278028D03*
D14*
X466242Y282448D03*
X485242Y282448D03*
X538632Y354838D03*
X557632Y354838D03*
D17*
X515112Y329082D03*
X515112Y348082D03*
D23*
X587248Y304165D03*
X587248Y293751D03*
D24*
X440090Y647400D03*
D25*
X414690Y672800D03*
X389290Y647400D03*
D26*
X406400Y757000D03*
D27*
X444500Y757000D03*
X482600Y757000D03*
X520700Y757000D03*
X558800Y757000D03*
X596900Y757000D03*
D26*
X561580Y219790D03*
D27*
X523480Y219790D03*
X485380Y219790D03*
X447280Y219790D03*
X409180Y219790D03*
X371080Y219790D03*
D26*
X932481Y392176D03*
D27*
X932481Y354076D03*
X932481Y315976D03*
X932481Y277876D03*
X932481Y239776D03*
X932481Y201676D03*
D28*
X540300Y458040D03*
X593300Y458040D03*
D10*
X91440Y213170D02*
X91440Y197930D01*
X116840Y197930D02*
X116840Y213170D01*
X142240Y213170D02*
X142240Y197930D01*
X167640Y197930D02*
X167640Y213170D01*
X193040Y213170D02*
X193040Y197930D01*
X218440Y197930D02*
X218440Y213170D01*
X243840Y213170D02*
X243840Y197930D01*
X269240Y197930D02*
X269240Y213170D01*
X294640Y213170D02*
X294640Y197930D01*
X320040Y197930D02*
X320040Y213170D01*
D29*
X939800Y771779D03*
X660400Y771779D03*
X660400Y441579D03*
X939800Y441579D03*
D30*
X260858Y370650D03*
X225806Y370650D03*
X149670Y370650D03*
X184658Y370650D03*
D31*
X532200Y609600D03*
D32*
X532200Y641600D03*
X532200Y663600D03*
X532200Y685600D03*
X481400Y685600D03*
X481400Y663600D03*
X481400Y641600D03*
X481400Y609600D03*
D33*
X374868Y755882D03*
X374868Y776882D03*
D29*
X39878Y765556D03*
X33100Y213200D03*
D34*
X562102Y292862D03*
D31*
X619830Y608330D03*
D32*
X619830Y640330D03*
X619830Y662330D03*
X619830Y684330D03*
X569030Y684330D03*
X569030Y662330D03*
X569030Y640330D03*
X569030Y608330D03*
D29*
X612267Y209931D03*
D35*
X388620Y523240D03*
D36*
X414020Y548640D03*
X439420Y523240D03*
D37*
X554990Y372110D03*
X565150Y311150D03*
D38*
X302260Y640080D03*
X243840Y617220D03*
D37*
X762000Y673100D03*
X762000Y660400D03*
X774700Y673100D03*
X774700Y660400D03*
M02*
