G04 EAGLE Gerber RS-274X export*
G75*
%MOMM*%
%FSLAX34Y34*%
%LPD*%
%INSoldermask Bottom*%
%IPPOS*%
%AMOC8*
5,1,8,0,0,1.08239X$1,22.5*%
G01*
%ADD10C,1.651000*%
%ADD11C,3.048000*%
%ADD12P,2.061953X8X22.500000*%
%ADD13C,1.905000*%
%ADD14R,0.427000X0.652000*%
%ADD15R,0.552000X0.427000*%
%ADD16R,1.427000X1.627000*%
%ADD17R,1.627000X1.427000*%
%ADD18R,1.127000X1.927000*%
%ADD19C,1.397000*%
%ADD20R,0.877000X0.427000*%
%ADD21R,1.027000X1.427000*%
%ADD22R,1.397000X0.787400*%
%ADD23R,1.277000X0.477000*%
%ADD24C,1.447800*%
%ADD25R,1.447800X1.447800*%
%ADD26R,1.127000X1.778000*%
%ADD27R,1.778000X1.127000*%
%ADD28R,1.777000X1.777000*%
%ADD29C,1.777000*%
%ADD30R,2.477000X1.677000*%
%ADD31C,1.927000*%
%ADD32C,3.643000*%
%ADD33P,1.787026X8X112.500000*%
%ADD34R,1.127000X1.227000*%
%ADD35R,1.227000X1.227000*%
%ADD36C,1.227000*%
%ADD37R,0.627000X0.757000*%
%ADD38R,0.627000X0.537000*%
%ADD39R,2.577000X2.027000*%
%ADD40R,0.827000X0.777000*%
%ADD41R,0.777000X0.827000*%
%ADD42R,1.344000X1.344000*%
%ADD43C,1.344000*%
%ADD44C,0.831000*%
%ADD45C,0.731000*%

G36*
X342457Y588530D02*
X342457Y588530D01*
X342523Y588532D01*
X342566Y588550D01*
X342613Y588558D01*
X342670Y588592D01*
X342730Y588617D01*
X342765Y588648D01*
X342806Y588673D01*
X342848Y588724D01*
X342896Y588768D01*
X342918Y588810D01*
X342947Y588847D01*
X342968Y588909D01*
X342999Y588968D01*
X343007Y589022D01*
X343019Y589059D01*
X343018Y589099D01*
X343026Y589153D01*
X343026Y592963D01*
X343015Y593028D01*
X343013Y593094D01*
X342995Y593137D01*
X342987Y593184D01*
X342953Y593241D01*
X342928Y593301D01*
X342897Y593336D01*
X342872Y593377D01*
X342821Y593419D01*
X342777Y593467D01*
X342735Y593489D01*
X342698Y593518D01*
X342636Y593539D01*
X342577Y593570D01*
X342523Y593578D01*
X342486Y593590D01*
X342446Y593589D01*
X342392Y593597D01*
X339852Y593597D01*
X339787Y593586D01*
X339721Y593584D01*
X339678Y593566D01*
X339631Y593558D01*
X339574Y593524D01*
X339514Y593499D01*
X339479Y593468D01*
X339438Y593443D01*
X339397Y593392D01*
X339348Y593348D01*
X339326Y593306D01*
X339297Y593269D01*
X339276Y593207D01*
X339245Y593148D01*
X339237Y593094D01*
X339225Y593057D01*
X339225Y593053D01*
X339225Y593052D01*
X339226Y593017D01*
X339218Y592963D01*
X339218Y589153D01*
X339229Y589088D01*
X339231Y589022D01*
X339249Y588979D01*
X339257Y588932D01*
X339291Y588875D01*
X339316Y588815D01*
X339347Y588780D01*
X339372Y588739D01*
X339423Y588698D01*
X339467Y588649D01*
X339509Y588627D01*
X339546Y588598D01*
X339608Y588577D01*
X339667Y588546D01*
X339721Y588538D01*
X339758Y588526D01*
X339798Y588527D01*
X339852Y588519D01*
X342392Y588519D01*
X342457Y588530D01*
G37*
G36*
X507557Y456450D02*
X507557Y456450D01*
X507623Y456452D01*
X507666Y456470D01*
X507713Y456478D01*
X507770Y456512D01*
X507830Y456537D01*
X507865Y456568D01*
X507906Y456593D01*
X507948Y456644D01*
X507996Y456688D01*
X508018Y456730D01*
X508047Y456767D01*
X508068Y456829D01*
X508099Y456888D01*
X508107Y456942D01*
X508119Y456979D01*
X508118Y457019D01*
X508126Y457073D01*
X508126Y460883D01*
X508115Y460948D01*
X508113Y461014D01*
X508095Y461057D01*
X508087Y461104D01*
X508053Y461161D01*
X508028Y461221D01*
X507997Y461256D01*
X507972Y461297D01*
X507921Y461339D01*
X507877Y461387D01*
X507835Y461409D01*
X507798Y461438D01*
X507736Y461459D01*
X507677Y461490D01*
X507623Y461498D01*
X507586Y461510D01*
X507546Y461509D01*
X507492Y461517D01*
X504952Y461517D01*
X504887Y461506D01*
X504821Y461504D01*
X504778Y461486D01*
X504731Y461478D01*
X504674Y461444D01*
X504614Y461419D01*
X504579Y461388D01*
X504538Y461363D01*
X504497Y461312D01*
X504448Y461268D01*
X504426Y461226D01*
X504397Y461189D01*
X504376Y461127D01*
X504345Y461068D01*
X504337Y461014D01*
X504325Y460977D01*
X504325Y460973D01*
X504325Y460972D01*
X504326Y460937D01*
X504318Y460883D01*
X504318Y457073D01*
X504329Y457008D01*
X504331Y456942D01*
X504349Y456899D01*
X504357Y456852D01*
X504391Y456795D01*
X504416Y456735D01*
X504447Y456700D01*
X504472Y456659D01*
X504523Y456618D01*
X504567Y456569D01*
X504609Y456547D01*
X504646Y456518D01*
X504708Y456497D01*
X504767Y456466D01*
X504821Y456458D01*
X504858Y456446D01*
X504898Y456447D01*
X504952Y456439D01*
X507492Y456439D01*
X507557Y456450D01*
G37*
G36*
X189295Y259832D02*
X189295Y259832D01*
X189361Y259834D01*
X189404Y259852D01*
X189451Y259860D01*
X189508Y259894D01*
X189568Y259919D01*
X189603Y259950D01*
X189644Y259975D01*
X189686Y260026D01*
X189734Y260070D01*
X189756Y260112D01*
X189785Y260149D01*
X189806Y260211D01*
X189837Y260270D01*
X189845Y260324D01*
X189857Y260361D01*
X189856Y260401D01*
X189864Y260455D01*
X189864Y264265D01*
X189853Y264330D01*
X189851Y264396D01*
X189833Y264439D01*
X189825Y264486D01*
X189791Y264543D01*
X189766Y264603D01*
X189735Y264638D01*
X189710Y264679D01*
X189659Y264721D01*
X189615Y264769D01*
X189573Y264791D01*
X189536Y264820D01*
X189474Y264841D01*
X189415Y264872D01*
X189361Y264880D01*
X189324Y264892D01*
X189284Y264891D01*
X189230Y264899D01*
X186690Y264899D01*
X186625Y264888D01*
X186559Y264886D01*
X186516Y264868D01*
X186469Y264860D01*
X186412Y264826D01*
X186352Y264801D01*
X186317Y264770D01*
X186276Y264745D01*
X186235Y264694D01*
X186186Y264650D01*
X186164Y264608D01*
X186135Y264571D01*
X186114Y264509D01*
X186083Y264450D01*
X186075Y264396D01*
X186063Y264359D01*
X186063Y264355D01*
X186063Y264354D01*
X186064Y264319D01*
X186056Y264265D01*
X186056Y260455D01*
X186067Y260390D01*
X186069Y260324D01*
X186087Y260281D01*
X186095Y260234D01*
X186129Y260177D01*
X186154Y260117D01*
X186185Y260082D01*
X186210Y260041D01*
X186261Y260000D01*
X186305Y259951D01*
X186347Y259929D01*
X186384Y259900D01*
X186446Y259879D01*
X186505Y259848D01*
X186559Y259840D01*
X186596Y259828D01*
X186636Y259829D01*
X186690Y259821D01*
X189230Y259821D01*
X189295Y259832D01*
G37*
G36*
X243905Y243322D02*
X243905Y243322D01*
X243971Y243324D01*
X244014Y243342D01*
X244061Y243350D01*
X244118Y243384D01*
X244178Y243409D01*
X244213Y243440D01*
X244254Y243465D01*
X244296Y243516D01*
X244344Y243560D01*
X244366Y243602D01*
X244395Y243639D01*
X244416Y243701D01*
X244447Y243760D01*
X244455Y243814D01*
X244467Y243851D01*
X244466Y243891D01*
X244474Y243945D01*
X244474Y247755D01*
X244463Y247820D01*
X244461Y247886D01*
X244443Y247929D01*
X244435Y247976D01*
X244401Y248033D01*
X244376Y248093D01*
X244345Y248128D01*
X244320Y248169D01*
X244269Y248211D01*
X244225Y248259D01*
X244183Y248281D01*
X244146Y248310D01*
X244084Y248331D01*
X244025Y248362D01*
X243971Y248370D01*
X243934Y248382D01*
X243894Y248381D01*
X243840Y248389D01*
X241300Y248389D01*
X241235Y248378D01*
X241169Y248376D01*
X241126Y248358D01*
X241079Y248350D01*
X241022Y248316D01*
X240962Y248291D01*
X240927Y248260D01*
X240886Y248235D01*
X240845Y248184D01*
X240796Y248140D01*
X240774Y248098D01*
X240745Y248061D01*
X240724Y247999D01*
X240693Y247940D01*
X240685Y247886D01*
X240673Y247849D01*
X240673Y247845D01*
X240673Y247844D01*
X240674Y247809D01*
X240666Y247755D01*
X240666Y243945D01*
X240677Y243880D01*
X240679Y243814D01*
X240697Y243771D01*
X240705Y243724D01*
X240739Y243667D01*
X240764Y243607D01*
X240795Y243572D01*
X240820Y243531D01*
X240871Y243490D01*
X240915Y243441D01*
X240957Y243419D01*
X240994Y243390D01*
X241056Y243369D01*
X241115Y243338D01*
X241169Y243330D01*
X241206Y243318D01*
X241246Y243319D01*
X241300Y243311D01*
X243840Y243311D01*
X243905Y243322D01*
G37*
D10*
X652780Y733679D02*
X668020Y733679D01*
X668020Y708279D02*
X652780Y708279D01*
X652780Y682879D02*
X668020Y682879D01*
X668020Y657479D02*
X652780Y657479D01*
X652780Y632079D02*
X668020Y632079D01*
X668020Y606679D02*
X652780Y606679D01*
X652780Y581279D02*
X668020Y581279D01*
X668020Y555879D02*
X652780Y555879D01*
X652780Y530479D02*
X668020Y530479D01*
X668020Y505079D02*
X652780Y505079D01*
X652780Y479679D02*
X668020Y479679D01*
D11*
X204597Y460756D03*
X39497Y765556D03*
D12*
X20447Y556006D03*
D13*
X20447Y632206D03*
X20447Y657606D03*
X134747Y746506D03*
X160147Y746506D03*
X134747Y771906D03*
X160147Y771906D03*
X185547Y746506D03*
X210947Y746506D03*
X236347Y746506D03*
X185547Y771906D03*
X236347Y771906D03*
X45847Y556006D03*
X71247Y556006D03*
X96647Y556006D03*
X122047Y556006D03*
X147447Y556006D03*
X172847Y556006D03*
X198247Y556006D03*
X223647Y556006D03*
X249047Y556006D03*
X274447Y556006D03*
X299847Y556006D03*
X325247Y556006D03*
X350647Y556006D03*
X20447Y708406D03*
X45847Y708406D03*
X71247Y708406D03*
X96647Y708406D03*
X122047Y708406D03*
X147447Y708406D03*
X172847Y708406D03*
X198247Y708406D03*
X223647Y708406D03*
X249047Y708406D03*
X274447Y708406D03*
X299847Y708406D03*
X325247Y708406D03*
X350647Y708406D03*
X268097Y448056D03*
X268097Y473456D03*
X268097Y498856D03*
D14*
X123042Y439797D03*
D15*
X122417Y447922D03*
X122417Y452922D03*
X122417Y457922D03*
X122417Y462922D03*
D14*
X123042Y471047D03*
X128042Y471047D03*
X133042Y471047D03*
X138042Y471047D03*
X143042Y471047D03*
X148042Y471047D03*
X153042Y471047D03*
X158042Y471047D03*
X163042Y471047D03*
X168042Y471047D03*
D15*
X168667Y462922D03*
X168667Y457922D03*
X168667Y452922D03*
X168667Y447922D03*
D14*
X168042Y439797D03*
X163042Y439797D03*
X158042Y439797D03*
X153042Y439797D03*
X148042Y439797D03*
X143042Y439797D03*
X138042Y439797D03*
X133042Y439797D03*
X128042Y439797D03*
D16*
X96368Y423418D03*
X77368Y423418D03*
X96672Y492252D03*
X115672Y492252D03*
D17*
X94742Y464668D03*
X94742Y445668D03*
D18*
X125422Y410972D03*
X150422Y410972D03*
D16*
X77622Y400812D03*
X96622Y400812D03*
D17*
X170942Y418948D03*
X170942Y399948D03*
D19*
X431292Y465582D03*
X432308Y448818D03*
X371602Y465582D03*
X371348Y447548D03*
D20*
X475328Y460128D03*
X475328Y455128D03*
X475328Y450128D03*
X475328Y445128D03*
X455328Y445128D03*
X455328Y450128D03*
X455328Y455128D03*
X455328Y460128D03*
D21*
X465328Y452628D03*
D10*
X782257Y404241D02*
X782257Y389001D01*
X756857Y389001D02*
X756857Y404241D01*
X731457Y404241D02*
X731457Y389001D01*
X706057Y389001D02*
X706057Y404241D01*
X680657Y404241D02*
X680657Y389001D01*
X655257Y389001D02*
X655257Y404241D01*
D16*
X535788Y497078D03*
X516788Y497078D03*
D22*
X506222Y474472D03*
X506222Y464058D03*
X506222Y453644D03*
D23*
X249818Y639422D03*
X249818Y645922D03*
X249818Y652422D03*
X266818Y652422D03*
X266818Y639422D03*
D16*
X263042Y592582D03*
X282042Y592582D03*
D17*
X304038Y583082D03*
X304038Y602082D03*
D16*
X280518Y616458D03*
X261518Y616458D03*
X239878Y598678D03*
X220878Y598678D03*
X323698Y654558D03*
X304698Y654558D03*
D17*
X221742Y641198D03*
X221742Y622198D03*
X199898Y621182D03*
X199898Y640182D03*
D16*
X245262Y678942D03*
X264262Y678942D03*
X303378Y677418D03*
X284378Y677418D03*
X336398Y631698D03*
X317398Y631698D03*
D24*
X440090Y647400D03*
D25*
X414690Y672800D03*
X389290Y647400D03*
D26*
X77980Y780150D03*
X77980Y728610D03*
X109980Y728610D03*
X109980Y780150D03*
D27*
X343270Y765300D03*
X291730Y765300D03*
X291730Y733300D03*
X343270Y733300D03*
X757036Y774698D03*
X705496Y774698D03*
X705496Y742698D03*
X757036Y742698D03*
X892926Y772920D03*
X841386Y772920D03*
X841386Y740920D03*
X892926Y740920D03*
D26*
X934718Y508392D03*
X934718Y559932D03*
X902718Y559932D03*
X902718Y508392D03*
X880108Y367422D03*
X880108Y418962D03*
X848108Y418962D03*
X848108Y367422D03*
X934718Y635392D03*
X934718Y686932D03*
X902718Y686932D03*
X902718Y635392D03*
D27*
X808112Y209552D03*
X859652Y209552D03*
X859652Y241552D03*
X808112Y241552D03*
X665872Y209552D03*
X717412Y209552D03*
X717412Y241552D03*
X665872Y241552D03*
X474102Y335282D03*
X525642Y335282D03*
X525642Y367282D03*
X474102Y367282D03*
D28*
X406400Y757000D03*
D29*
X444500Y757000D03*
X482600Y757000D03*
X520700Y757000D03*
X558800Y757000D03*
X596900Y757000D03*
D28*
X561580Y219790D03*
D29*
X523480Y219790D03*
X485380Y219790D03*
X447280Y219790D03*
X409180Y219790D03*
X371080Y219790D03*
D28*
X932481Y392176D03*
D29*
X932481Y354076D03*
X932481Y315976D03*
X932481Y277876D03*
X932481Y239776D03*
X932481Y201676D03*
D30*
X720688Y709168D03*
X763688Y709168D03*
D31*
X540300Y458040D03*
X593300Y458040D03*
D10*
X91440Y213170D02*
X91440Y197930D01*
X116840Y197930D02*
X116840Y213170D01*
X142240Y213170D02*
X142240Y197930D01*
X167640Y197930D02*
X167640Y213170D01*
X193040Y213170D02*
X193040Y197930D01*
X218440Y197930D02*
X218440Y213170D01*
X243840Y213170D02*
X243840Y197930D01*
X269240Y197930D02*
X269240Y213170D01*
X294640Y213170D02*
X294640Y197930D01*
X320040Y197930D02*
X320040Y213170D01*
D32*
X939800Y771779D03*
X660400Y771779D03*
X660400Y441579D03*
X939800Y441579D03*
D22*
X187960Y267567D03*
X187960Y257153D03*
X242570Y251057D03*
X242570Y240643D03*
D33*
X260858Y370650D03*
X225806Y370650D03*
X149670Y370650D03*
X184658Y370650D03*
D19*
X117345Y284206D03*
X127000Y302260D03*
X134620Y350520D03*
X130810Y326390D03*
D34*
X110100Y520700D03*
X93100Y520700D03*
D35*
X532200Y609600D03*
D36*
X532200Y641600D03*
X532200Y663600D03*
X532200Y685600D03*
X481400Y685600D03*
X481400Y663600D03*
X481400Y641600D03*
X481400Y609600D03*
D37*
X580234Y548260D03*
X573734Y548260D03*
X567234Y548260D03*
X560734Y548260D03*
D38*
X560734Y578060D03*
X567234Y578060D03*
X573734Y578060D03*
X580234Y578060D03*
D39*
X570484Y566510D03*
D17*
X542544Y572110D03*
X542544Y553110D03*
X517144Y553110D03*
X517144Y572110D03*
D16*
X519074Y529590D03*
X538074Y529590D03*
D32*
X39878Y765556D03*
X33100Y213200D03*
D22*
X341122Y606552D03*
X341122Y596138D03*
X341122Y585724D03*
D40*
X323342Y600348D03*
X323342Y586848D03*
D41*
X216808Y662178D03*
X203308Y662178D03*
D19*
X879602Y334518D03*
X720598Y682498D03*
X368808Y772668D03*
X368808Y745998D03*
X380238Y719328D03*
X211582Y678942D03*
X484378Y710438D03*
D37*
X618588Y548768D03*
X612088Y548768D03*
X605588Y548768D03*
X599088Y548768D03*
D38*
X599088Y578568D03*
X605588Y578568D03*
X612088Y578568D03*
X618588Y578568D03*
D39*
X608838Y567018D03*
D16*
X578002Y524002D03*
X597002Y524002D03*
D19*
X578358Y497078D03*
D35*
X619830Y608330D03*
D36*
X619830Y640330D03*
X619830Y662330D03*
X619830Y684330D03*
X569030Y684330D03*
X569030Y662330D03*
X569030Y640330D03*
X569030Y608330D03*
D19*
X522478Y710438D03*
D32*
X612267Y209931D03*
D26*
X20830Y515990D03*
X20830Y464450D03*
X52830Y464450D03*
X52830Y515990D03*
X19560Y375020D03*
X19560Y323480D03*
X51560Y323480D03*
X51560Y375020D03*
D19*
X332740Y494030D03*
X774700Y585470D03*
X878840Y302260D03*
D42*
X388620Y523240D03*
D43*
X414020Y548640D03*
X439420Y523240D03*
D44*
X554990Y372110D03*
X565150Y311150D03*
D45*
X302260Y640080D03*
X243840Y617220D03*
D44*
X762000Y673100D03*
X762000Y660400D03*
X774700Y673100D03*
X774700Y660400D03*
M02*
