G04 EAGLE Gerber RS-274X export*
G75*
%MOMM*%
%FSLAX34Y34*%
%LPD*%
%INSolderpaste Top*%
%IPPOS*%
%AMOC8*
5,1,8,0,0,1.08239X$1,22.5*%
G01*
%ADD10R,1.300000X1.500000*%
%ADD11R,1.000000X1.270000*%
%ADD12R,1.200000X0.400000*%
%ADD13R,1.500000X1.300000*%
%ADD14R,0.200000X0.700000*%
%ADD15R,0.700000X0.200000*%
%ADD16R,0.950000X0.950000*%
%ADD17R,1.500000X1.100000*%
%ADD18R,1.200000X1.200000*%


D10*
X398932Y386588D03*
X417932Y386588D03*
X458318Y386842D03*
X439318Y386842D03*
X400202Y324358D03*
X419202Y324358D03*
X459588Y324612D03*
X440588Y324612D03*
D11*
X405638Y345092D03*
X396138Y365092D03*
X415138Y365092D03*
X447548Y345092D03*
X438048Y365092D03*
X457048Y365092D03*
D12*
X419252Y296568D03*
X419252Y290068D03*
X419252Y283568D03*
X438252Y283568D03*
X438252Y290068D03*
X438252Y296568D03*
D13*
X388112Y282092D03*
X388112Y301092D03*
D14*
X541592Y312842D03*
X545592Y312842D03*
X549592Y312842D03*
D15*
X556092Y319342D03*
X556092Y323342D03*
X556092Y327342D03*
D14*
X549592Y333842D03*
X545592Y333842D03*
X541592Y333842D03*
D15*
X535092Y327342D03*
X535092Y323342D03*
X535092Y319342D03*
D16*
X545592Y323342D03*
D17*
X568560Y392590D03*
X568560Y417990D03*
X479560Y417990D03*
X479560Y392590D03*
D13*
X493268Y321158D03*
X493268Y302158D03*
X516382Y282092D03*
X516382Y301092D03*
X537718Y297028D03*
X537718Y278028D03*
D10*
X466242Y282448D03*
X485242Y282448D03*
X538632Y354838D03*
X557632Y354838D03*
D13*
X515112Y329082D03*
X515112Y348082D03*
D18*
X374868Y755882D03*
X374868Y776882D03*
M02*
